<svg width="356" height="274" viewBox="0 0 356 274" fill="none" xmlns="http://www.w3.org/2000/svg">
<path d="M201.298 59.0698H41.6021L41.6048 59.053L45.0834 37.3261H204.187V37.3418L201.298 59.0698ZM41.635 59.0406H201.275L204.157 37.3547H45.1083L41.635 59.0406Z" fill="#263238"/>
<mask id="mask0_250_2883" style="mask-type:luminance" maskUnits="userSpaceOnUse" x="31" y="4" width="178" height="119">
<path d="M208.612 4.90497H31.3846V122.266H208.612V4.90497Z" fill="white"/>
</mask>
<g mask="url(#mask0_250_2883)">
<path d="M50.2686 5.03567L208.463 4.90497H208.612L208.592 5.05295C203.929 40.1868 198.64 80.0281 193.054 122.107L193.037 122.233H191.096L31.524 122.207H31.3846L31.4062 122.07C42.8284 51.2002 50.113 6.00403 50.2686 5.03567C50.1141 6.00349 42.9235 51.2126 31.6406 122.107L31.524 121.969L191.096 121.943H192.91L192.766 122.069C198.363 79.9913 203.661 40.1517 208.334 5.01839L208.463 5.16637L50.2686 5.03567Z" fill="#263238"/>
<path d="M204.171 37.3391C204.171 37.4191 168.558 37.4839 124.638 37.4839C80.7017 37.4839 45.0963 37.4191 45.0963 37.3391C45.0963 37.2592 80.7012 37.1944 124.638 37.1944C168.558 37.1944 204.171 37.2592 204.171 37.3391Z" fill="#263238"/>
<path d="M201.286 59.0541C201.286 59.134 165.472 59.1988 121.304 59.1988C77.1204 59.1988 41.3147 59.134 41.3147 59.0541C41.3147 58.9742 77.1221 58.9094 121.304 58.9094C165.472 58.9094 201.286 58.9742 201.286 59.0541Z" fill="#263238"/>
<path d="M198.037 79.0318C198.037 79.1118 162.223 79.1766 118.055 79.1766C73.8724 79.1766 38.0651 79.1118 38.0651 79.0318C38.0651 78.9519 73.8724 78.8871 118.054 78.8871C162.223 78.8871 198.037 78.9519 198.037 79.0318" fill="#263238"/>
<path d="M194.79 99.0097C194.79 99.0897 158.976 99.1545 114.808 99.1545C70.6241 99.1545 34.8184 99.0897 34.8184 99.0097C34.8184 98.9298 70.6257 98.865 114.808 98.865C158.976 98.865 194.79 98.9298 194.79 99.0097Z" fill="#263238"/>
<path d="M54.008 122.266C53.9292 122.254 56.8532 103.231 60.5392 79.7825C64.2253 56.3343 67.2778 37.3272 67.3567 37.3397C67.4355 37.3521 64.5121 56.3694 60.8249 79.8273C57.1378 103.285 54.0869 122.278 54.008 122.266Z" fill="#263238"/>
<path d="M78.6267 122.266C78.5478 122.254 81.4718 103.231 85.1579 79.7825C88.8439 56.3343 91.8965 37.3272 91.9753 37.3397C92.0542 37.3521 89.1307 56.3694 85.4436 79.8273C81.7565 103.285 78.7055 122.278 78.6267 122.266Z" fill="#263238"/>
<path d="M101.501 121.416C101.422 121.404 104.316 102.571 107.966 79.3572C111.615 56.1337 114.637 37.327 114.717 37.3389C114.796 37.3508 111.902 56.1801 108.252 79.402C104.604 102.615 101.581 121.428 101.501 121.415" fill="#263238"/>
<path d="M124.138 122.088C124.059 122.076 126.977 103.092 130.655 79.6918C134.333 56.2911 137.379 37.3251 137.46 37.3375C137.54 37.35 134.621 56.3295 130.942 79.7366C127.264 103.136 124.218 122.098 124.137 122.086" fill="#263238"/>
<path d="M146.879 122.088C146.8 122.076 149.719 103.092 153.396 79.6918C157.074 56.2911 160.121 37.3251 160.201 37.3375C160.282 37.35 157.361 56.3311 153.682 79.7382C150.005 103.137 146.958 122.1 146.877 122.088" fill="#263238"/>
<path d="M169.602 122.212C169.523 122.2 172.445 103.189 176.128 79.7555C179.812 56.3159 182.863 37.3272 182.942 37.3397C183.021 37.3521 180.099 56.3591 176.415 79.8008C172.731 103.234 169.681 122.225 169.602 122.212Z" fill="#263238"/>
<path d="M149.84 81.3608C149.888 81.4251 145.663 84.6586 140.406 88.5828C135.149 92.507 130.847 95.6368 130.799 95.5725C130.751 95.5082 134.973 92.278 140.233 88.35C145.492 84.422 149.792 81.2971 149.84 81.3608Z" fill="#263238"/>
<path d="M151.479 95.0592C151.437 95.1267 146.952 92.3453 141.465 88.8482C135.978 85.3512 131.562 82.4585 131.605 82.3916C131.649 82.3246 136.132 85.1055 141.621 88.6025C147.111 92.0995 151.523 94.9917 151.479 95.0586" fill="#263238"/>
<path d="M107.532 61.8768C107.58 61.941 103.356 65.1745 98.0988 69.0987C92.8416 73.0229 88.5393 76.1527 88.4913 76.0884C88.4432 76.0242 92.6661 72.7939 97.9254 68.8659C103.185 64.9379 107.485 61.813 107.532 61.8768Z" fill="#263238"/>
<path d="M109.172 75.5749C109.129 75.6424 104.645 72.861 99.1579 69.364C93.6707 65.867 89.255 62.9743 89.2982 62.9073C89.3414 62.8403 93.8246 65.6212 99.314 69.1182C104.803 72.6153 109.215 75.5074 109.172 75.5744" fill="#263238"/>
<path d="M76.985 101.401C77.033 101.465 72.8085 104.699 67.5514 108.623C62.2942 112.547 57.992 115.677 57.9439 115.613C57.8958 115.549 62.1187 112.318 67.378 108.39C72.6373 104.462 76.9375 101.337 76.985 101.401Z" fill="#263238"/>
<path d="M78.6246 115.099C78.5819 115.167 74.0976 112.385 68.6104 108.888C63.1232 105.391 58.7075 102.499 58.7507 102.432C58.7939 102.365 63.2771 105.146 68.7665 108.643C74.2559 112.14 78.6678 115.032 78.6246 115.099" fill="#263238"/>
</g>
<mask id="mask1_250_2883" style="mask-type:luminance" maskUnits="userSpaceOnUse" x="44" y="61" width="16" height="16">
<path d="M59.5397 61.6375H44.1885V76.5086H59.5397V61.6375Z" fill="white"/>
</mask>
<g mask="url(#mask1_250_2883)">
<path d="M58.9075 61.9702C58.9075 61.9702 60.3425 70.8475 58.8886 76.5092L44.8589 76.2073C44.8589 76.2073 47.7294 67.1674 45.9115 62.6491L58.9075 61.9702Z" fill="#EBEBEB"/>
<path d="M58.8528 61.6375C58.8528 61.6375 58.7577 72.8009 58.1906 76.2067L44.1885 75.5445C44.1885 75.5445 45.4182 64.5701 44.9446 61.6375H58.8528Z" fill="#18BAB7"/>
<path d="M47.0559 66.3284C47.0532 66.3824 49.1536 66.5482 51.7476 66.7065C54.3416 66.8647 56.4463 66.9474 56.4517 66.8955C56.4571 66.8437 54.354 66.6757 51.7589 66.5175C49.1638 66.3592 47.0602 66.2766 47.0559 66.3284Z" fill="white"/>
<path d="M47.0515 68.6913C47.0488 68.7454 49.1492 68.9112 51.7432 69.0694C54.3372 69.2276 56.4419 69.3103 56.4473 69.2584C56.4527 69.2066 54.3496 69.0386 51.7545 68.8804C49.1595 68.7221 47.0558 68.6395 47.0515 68.6913Z" fill="white"/>
<path d="M49.4319 71.0127C49.6865 71.081 49.9483 71.1189 50.2118 71.1255C50.6951 71.1715 51.3638 71.2222 52.102 71.267C52.8403 71.3119 53.5111 71.3416 53.9961 71.3535C54.2586 71.3785 54.5231 71.3722 54.7841 71.3346C54.5296 71.2658 54.2678 71.2279 54.0042 71.2217C53.5181 71.1758 52.8522 71.1245 52.1139 71.0802C51.3756 71.0359 50.7054 71.0057 50.2199 70.9938C49.9574 70.9687 49.6929 70.9751 49.4319 71.0127Z" fill="white"/>
</g>
<g opacity="0.1">
<mask id="mask2_250_2883" style="mask-type:luminance" maskUnits="userSpaceOnUse" x="197" y="36" width="121" height="121">
<path d="M317.887 36.2432H197.275V156.855H317.887V36.2432Z" fill="white"/>
</mask>
<g mask="url(#mask2_250_2883)">
<path d="M257.581 156.577C290.733 156.577 317.609 129.702 317.609 96.5492C317.609 63.3967 290.733 36.5214 257.581 36.5214C224.428 36.5214 197.553 63.3967 197.553 96.5492C197.553 129.702 224.428 156.577 257.581 156.577Z" stroke="black" stroke-width="1.78" stroke-miterlimit="10"/>
<path d="M257.581 146.486C285.424 146.486 307.996 123.914 307.996 96.0713C307.996 68.2282 285.424 45.6569 257.581 45.6569C229.738 45.6569 207.167 68.2282 207.167 96.0713C207.167 123.914 229.738 146.486 257.581 146.486Z" stroke="black" stroke-width="1.78" stroke-miterlimit="10"/>
<path d="M307.995 96.0706C307.995 96.0706 307.979 95.7935 307.96 95.2534C307.927 94.7133 307.947 93.9075 307.852 92.8571C307.65 89.788 307.169 86.7436 306.416 83.7616C305.868 81.6093 305.177 79.496 304.348 77.4356C303.372 74.98 302.198 72.6079 300.837 70.3427C297.518 64.8088 293.177 59.9558 288.046 56.0419C281.814 51.3007 274.56 48.0825 266.863 46.6445C260.341 45.4414 253.647 45.5192 247.154 46.8735C244.874 47.3659 242.628 48.0065 240.431 48.7913C231.08 52.2016 222.948 58.3029 217.058 66.3267C215.521 68.4156 214.15 70.6219 212.958 72.9254C212.339 74.0774 211.811 75.2791 211.27 76.4802C210.784 77.7046 210.283 78.9284 209.883 80.1949C209.034 82.7306 208.393 85.3317 207.968 87.972C207.547 90.6488 207.327 93.3534 207.31 96.063C207.327 98.7735 207.546 101.479 207.966 104.157C208.391 106.798 209.031 109.4 209.879 111.937C210.28 113.204 210.781 114.428 211.266 115.653C211.806 116.854 212.335 118.057 212.954 119.209C214.145 121.513 215.516 123.72 217.053 125.81C222.944 133.836 231.08 139.939 240.434 143.348C242.631 144.133 244.877 144.774 247.158 145.266C253.652 146.621 260.347 146.698 266.871 145.494C274.568 144.057 281.823 140.839 288.054 136.097C293.185 132.183 297.525 127.33 300.844 121.796C302.204 119.531 303.377 117.159 304.352 114.704C305.181 112.644 305.871 110.53 306.419 108.378C307.173 105.396 307.653 102.353 307.855 99.284C307.949 98.2336 307.929 97.4278 307.963 96.8882C307.982 96.3482 307.999 96.0711 307.999 96.0711C307.999 96.0711 308.001 96.3476 307.993 96.8888C307.97 97.4289 308 98.2352 307.915 99.2873C307.613 104.595 306.453 109.818 304.482 114.755C303.512 117.221 302.343 119.604 300.985 121.879C297.669 127.442 293.323 132.323 288.18 136.26C281.928 141.035 274.644 144.278 266.912 145.731C260.358 146.947 253.631 146.876 247.104 145.522C244.811 145.029 242.552 144.387 240.343 143.599C230.935 140.178 222.752 134.046 216.825 125.978C215.279 123.878 213.899 121.659 212.701 119.342C212.078 118.183 211.547 116.973 211.002 115.766C210.516 114.534 210.01 113.302 209.607 112.028C208.752 109.477 208.108 106.86 207.681 104.204C207.258 101.511 207.038 98.7896 207.021 96.0635C207.039 93.3385 207.26 90.6186 207.684 87.9267C208.111 85.2711 208.755 82.655 209.609 80.1047C210.012 78.8312 210.517 77.5998 211.005 76.3684C211.549 75.1602 212.08 73.9521 212.704 72.7936C213.903 70.4777 215.282 68.2594 216.828 66.1593C222.754 58.093 230.937 51.9629 240.343 48.5424C242.553 47.7548 244.811 47.1125 247.104 46.6197C253.63 45.2646 260.357 45.1933 266.91 46.4096C274.64 47.8624 281.923 51.1052 288.174 55.8783C293.317 59.8157 297.663 64.6966 300.98 70.2601C302.338 72.5355 303.508 74.9182 304.477 77.3843C306.449 82.3216 307.609 87.5454 307.912 92.8533C307.997 93.9059 307.966 94.7133 307.989 95.2529C307.998 95.793 307.995 96.0706 307.995 96.0706Z" fill="black"/>
<path d="M300.599 94.2407C299 94.3077 297.697 94.2467 297.689 94.1052C297.682 93.9637 298.973 93.7757 300.572 93.685C302.171 93.5942 303.472 93.6547 303.481 93.8211C303.489 93.9874 302.198 94.1743 300.599 94.2407Z" fill="black"/>
<path d="M299.526 105.848C297.967 105.483 296.728 105.075 296.759 104.938C296.79 104.8 298.083 104.964 299.648 105.305C301.212 105.646 302.451 106.052 302.414 106.214C302.376 106.376 301.084 106.214 299.526 105.848Z" fill="black"/>
<path d="M295.363 116.735C293.959 115.963 292.879 115.237 292.944 115.115C293.008 114.992 294.212 115.497 295.627 116.249C297.042 117.001 298.125 117.724 298.046 117.869C297.968 118.014 296.766 117.508 295.363 116.735Z" fill="black"/>
<path d="M288.433 126.107C287.286 124.988 286.434 124 286.534 123.897C286.633 123.794 287.654 124.605 288.818 125.705C289.981 126.806 290.831 127.794 290.715 127.914C290.6 128.034 289.578 127.224 288.433 126.107Z" fill="black"/>
<path d="M279.251 133.289C278.446 131.904 277.892 130.724 278.013 130.652C278.135 130.58 278.903 131.633 279.73 133.005C280.557 134.377 281.11 135.556 280.968 135.641C280.825 135.726 280.057 134.672 279.251 133.289Z" fill="black"/>
<path d="M268.478 137.736C268.076 136.186 267.861 134.899 267.998 134.863C268.135 134.827 268.592 136.047 269.016 137.593C269.439 139.138 269.656 140.421 269.495 140.465C269.335 140.509 268.879 139.286 268.478 137.736Z" fill="black"/>
<path d="M256.903 139.125C256.929 137.523 257.065 136.227 257.206 136.228C257.346 136.229 257.461 137.528 257.46 139.129C257.459 140.73 257.324 142.027 257.158 142.026C256.992 142.024 256.878 140.725 256.903 139.125Z" fill="black"/>
<path d="M245.377 137.375C245.832 135.84 246.313 134.627 246.449 134.667C246.585 134.707 246.346 135.988 245.914 137.53C245.482 139.071 245.002 140.284 244.842 140.237C244.682 140.19 244.921 138.909 245.376 137.375" fill="black"/>
<path d="M234.755 132.583C235.607 131.227 236.395 130.188 236.515 130.261C236.635 130.334 236.059 131.503 235.229 132.874C234.398 134.245 233.608 135.282 233.469 135.196C233.33 135.111 233.904 133.94 234.755 132.584" fill="black"/>
<path d="M225.798 125.121C226.981 124.041 228.018 123.25 228.114 123.354C228.21 123.457 227.342 124.431 226.176 125.529C225.01 126.627 223.973 127.419 223.861 127.295C223.749 127.17 224.617 126.2 225.798 125.121Z" fill="black"/>
<path d="M219.163 115.536C220.592 114.812 221.803 114.328 221.867 114.455C221.932 114.582 220.836 115.287 219.418 116.031C218 116.776 216.79 117.26 216.714 117.112C216.639 116.963 217.735 116.259 219.163 115.536" fill="black"/>
<path d="M215.356 104.525C216.927 104.214 218.223 104.075 218.252 104.214C218.28 104.353 217.034 104.736 215.468 105.07C213.901 105.404 212.605 105.544 212.572 105.381C212.539 105.218 213.786 104.836 215.356 104.525Z" fill="black"/>
<path d="M214.637 92.888C216.234 93.0063 217.521 93.2164 217.512 93.3579C217.502 93.4994 216.199 93.5377 214.6 93.4437C213.001 93.3498 211.716 93.1397 211.726 92.9739C211.736 92.8081 213.041 92.7703 214.637 92.888Z" fill="black"/>
<path d="M217.057 81.4844C218.563 82.0294 219.745 82.5786 219.699 82.712C219.653 82.8454 218.387 82.5306 216.872 82.0099C215.358 81.4893 214.177 80.9379 214.232 80.7813C214.287 80.6246 215.552 80.94 217.057 81.4834" fill="black"/>
<path d="M222.46 71.1577C223.765 72.0866 224.757 72.9335 224.675 73.048C224.593 73.1625 223.459 72.5214 222.14 71.6124C220.821 70.7035 219.831 69.8566 219.926 69.7222C220.02 69.5877 221.155 70.2293 222.459 71.1577" fill="black"/>
<path d="M230.428 62.6507C231.437 63.8929 232.167 64.9731 232.058 65.0643C231.949 65.1556 231.027 64.2321 229.999 63.0045C228.97 61.7769 228.241 60.6967 228.369 60.5914C228.497 60.4861 229.419 61.408 230.428 62.6507Z" fill="black"/>
<path d="M240.382 56.5852C241.019 58.0542 241.432 59.291 241.303 59.3488C241.174 59.4066 240.534 58.2686 239.873 56.8104C239.212 55.3522 238.801 54.1154 238.955 54.0484C239.109 53.9814 239.747 55.1172 240.384 56.5868" fill="black"/>
<path d="M251.603 53.428C251.822 55.0147 251.886 56.3169 251.746 56.3374C251.606 56.3579 251.296 55.0914 251.053 53.5085C250.811 51.9255 250.746 50.6239 250.911 50.5996C251.075 50.5753 251.385 51.8418 251.603 53.428Z" fill="black"/>
<path d="M263.262 53.3819C263.051 54.9697 262.766 56.2443 262.625 56.2243C262.485 56.2043 262.523 54.9033 262.71 53.3127C262.898 51.7222 263.182 50.4503 263.346 50.4708C263.511 50.4913 263.473 51.7951 263.262 53.3819Z" fill="black"/>
<path d="M274.503 56.4682C273.871 57.9394 273.252 59.0881 273.122 59.033C272.992 58.9779 273.38 57.7336 273.99 56.2527C274.599 54.7718 275.217 53.6247 275.37 53.6884C275.523 53.7521 275.135 54.9975 274.503 56.4682Z" fill="black"/>
<path d="M284.5 62.4639C283.497 63.7126 282.594 64.6534 282.483 64.5654C282.372 64.4773 283.077 63.3826 284.063 62.1188C285.049 60.855 285.95 59.9147 286.079 60.0179C286.209 60.121 285.502 61.2163 284.5 62.4639Z" fill="black"/>
<path d="M292.53 70.9119C291.23 71.8473 290.109 72.5127 290.026 72.3988C289.943 72.2848 290.916 71.418 292.202 70.4626C293.487 69.5072 294.608 68.8423 294.706 68.9763C294.803 69.1102 293.83 69.977 292.53 70.9119Z" fill="black"/>
<path d="M298.003 81.2032C296.499 81.7535 295.24 82.0927 295.19 81.9593C295.14 81.8259 296.312 81.2572 297.807 80.6809C299.302 80.1047 300.562 79.7687 300.619 79.9248C300.676 80.0809 299.506 80.6528 298.003 81.2032Z" fill="black"/>
<path d="M300.497 92.588C298.901 92.7149 297.597 92.7036 297.585 92.5632C297.572 92.4227 298.855 92.1851 300.447 92.0355C302.04 91.8859 303.345 91.8956 303.359 92.0603C303.374 92.2251 302.091 92.4611 300.497 92.588" fill="black"/>
<path d="M238.548 44.2951C238.494 44.3274 238.436 44.354 238.377 44.3745L237.863 44.584C237.416 44.7725 236.736 44.9999 235.894 45.3742C233.496 46.3767 231.167 47.5381 228.924 48.8507C227.497 49.6716 225.987 50.6578 224.403 51.7671C222.731 52.9688 221.12 54.2539 219.577 55.6174C212.461 61.884 207.027 69.8337 203.773 78.7404C203.063 80.6732 202.45 82.6405 201.937 84.6348C201.478 86.5143 201.108 88.2798 200.861 89.9066C200.452 92.4741 200.215 95.0662 200.151 97.6654C200.108 98.5835 200.143 99.3013 200.13 99.7868C200.128 100.017 200.125 100.199 200.124 100.339C200.126 100.402 200.122 100.465 200.111 100.527C200.099 100.466 200.093 100.403 200.094 100.34C200.088 100.2 200.081 100.016 200.072 99.7879C200.066 99.3018 200.013 98.5862 200.038 97.6637C200.059 95.0562 200.267 92.4535 200.66 89.8758C200.895 88.2409 201.254 86.4662 201.706 84.5765C202.21 82.5708 202.816 80.5922 203.523 78.6486C206.765 69.6864 212.228 61.6935 219.401 55.4181C220.955 54.0541 222.577 52.7706 224.262 51.5727C225.859 50.4666 227.382 49.4869 228.82 48.6741C231.079 47.3719 233.429 46.2335 235.852 45.2678C236.702 44.9086 237.389 44.698 237.843 44.5268L238.365 44.347C238.424 44.3235 238.485 44.3061 238.548 44.2951Z" stroke="black" stroke-width="1.78" stroke-miterlimit="10"/>
<path d="M257.245 40.7679C256.672 40.8879 256.091 40.9644 255.506 40.9969C254.432 41.1103 252.947 41.2713 251.312 41.483C249.677 41.6947 248.201 41.9188 247.132 42.083C246.559 42.2002 245.978 42.2744 245.393 42.305C245.947 42.1115 246.517 41.9696 247.097 41.881C248.159 41.665 249.635 41.409 251.275 41.1957C252.916 40.9823 254.408 40.8543 255.488 40.7928C256.072 40.7303 256.66 40.722 257.245 40.7679Z" stroke="black" stroke-width="1.78" stroke-miterlimit="10"/>
<path d="M274.809 61.2383L263.775 95.9747V95.9801L263.753 96.0524V96.0578L263.748 96.0692L263.625 95.9131C263.238 94.8153 262.535 93.8565 261.604 93.1571C261.543 93.1128 261.482 93.0679 261.421 93.0291C260.746 92.5573 259.977 92.2381 259.166 92.0936C258.286 91.937 257.381 91.9807 256.52 92.2216L256.486 92.099V92.0936L256.587 91.9316L274.809 61.2383Z" stroke="black" stroke-width="1.78" stroke-miterlimit="10"/>
<path d="M263.747 96.0706L263.686 96.0872C263.67 96.0336 263.648 95.9767 263.626 95.9155L263.747 96.0706Z" stroke="black" stroke-width="1.78" stroke-miterlimit="10"/>
<path d="M263.758 99.1889C263.416 100.459 262.657 101.578 261.604 102.367C260.833 102.948 259.929 103.327 258.974 103.468C258.019 103.609 257.043 103.508 256.137 103.175C255.614 102.989 255.122 102.724 254.679 102.39C254.212 102.049 253.802 101.636 253.466 101.165C252.738 100.18 252.346 98.9872 252.346 97.7625C252.346 96.5378 252.738 95.3453 253.466 94.36C253.803 93.8905 254.213 93.4772 254.679 93.1351C255.124 92.8011 255.615 92.5346 256.137 92.3444C256.263 92.296 256.391 92.2551 256.521 92.2218V92.2164C257.383 91.9755 258.287 91.9318 259.168 92.0884C259.978 92.2329 260.747 92.5521 261.422 93.0238C261.483 93.0627 261.545 93.1076 261.606 93.1518C262.537 93.8526 263.24 94.8132 263.627 95.9127C263.649 95.9738 263.671 96.0294 263.688 96.0856C263.716 96.1747 263.738 96.2584 263.76 96.3362C263.868 96.8062 263.948 97.2821 263.999 97.7614C263.998 97.1849 263.915 96.6115 263.754 96.058V96.0526C263.334 94.6853 262.435 93.5155 261.221 92.7581C260.522 92.3242 259.74 92.0406 258.926 91.9256C258.111 91.8106 257.281 91.8666 256.49 92.09V92.0954C255.435 92.3955 254.485 92.9837 253.747 93.7939C253.008 94.6041 252.51 95.6043 252.309 96.6819C252.108 97.7596 252.211 98.872 252.607 99.8942C253.003 100.916 253.677 101.808 254.552 102.468C255.427 103.129 256.469 103.532 257.56 103.633C258.652 103.734 259.75 103.529 260.731 103.04C261.712 102.551 262.538 101.798 263.115 100.866C263.692 99.9334 263.997 98.8588 263.997 97.7625C263.945 98.2422 263.866 98.7185 263.758 99.1889Z" stroke="black" stroke-width="1.78" stroke-miterlimit="10"/>
<path d="M263.87 99.2164C263.602 100.328 263.02 101.339 262.194 102.129C261.368 102.92 260.333 103.457 259.21 103.675C258.153 103.875 257.061 103.789 256.048 103.425C255.499 103.235 254.983 102.962 254.517 102.615C254.025 102.259 253.592 101.826 253.237 101.334C252.47 100.302 252.056 99.051 252.056 97.7657C252.056 96.4804 252.47 95.2293 253.237 94.1974C253.591 93.7038 254.023 93.2713 254.517 92.9169C254.981 92.5648 255.498 92.2887 256.048 92.0987C256.225 92.0321 256.405 91.9764 256.588 91.9318C257.446 91.7153 258.341 91.6888 259.21 91.854C259.939 91.9932 260.635 92.268 261.263 92.6641C261.43 92.7722 261.587 92.8802 261.73 92.9925C262.708 93.7483 263.422 94.7922 263.774 95.9765V95.9819C263.81 96.0893 263.84 96.199 263.863 96.3102C263.985 96.7842 264.03 97.2747 263.996 97.763C263.944 97.2837 263.864 96.8078 263.757 96.3378C263.735 96.26 263.713 96.1757 263.684 96.0872C263.668 96.0332 263.646 95.9759 263.623 95.9143C263.237 94.8148 262.534 93.8542 261.602 93.1534C261.541 93.1092 261.48 93.0643 261.419 93.0254C260.744 92.5537 259.975 92.2345 259.164 92.09C258.284 91.9334 257.379 91.9771 256.518 92.218V92.2234C256.388 92.2567 256.26 92.2976 256.134 92.346C255.612 92.5363 255.12 92.8027 254.676 93.1367C254.21 93.4788 253.8 93.8921 253.462 94.3616C252.735 95.3469 252.343 96.5394 252.343 97.7641C252.343 98.9888 252.735 100.181 253.462 101.167C253.799 101.637 254.208 102.051 254.676 102.392C255.119 102.726 255.611 102.99 256.134 103.176C257.04 103.51 258.015 103.611 258.97 103.47C259.925 103.328 260.83 102.95 261.601 102.369C262.654 101.58 263.412 100.461 263.755 99.1905C263.863 98.7205 263.943 98.2446 263.994 97.7652C264.03 98.2525 263.988 98.7423 263.87 99.2164Z" stroke="black" stroke-width="1.78" stroke-miterlimit="10"/>
</g>
</g>
<mask id="mask3_250_2883" style="mask-type:luminance" maskUnits="userSpaceOnUse" x="0" y="0" width="356" height="274">
<path d="M355.452 0H0V273.78H355.452V0Z" fill="white"/>
</mask>
<g mask="url(#mask3_250_2883)">
<mask id="mask4_250_2883" style="mask-type:luminance" maskUnits="userSpaceOnUse" x="0" y="0" width="356" height="274">
<path d="M355.452 0H0V273.78H355.452V0Z" fill="white"/>
</mask>
<g mask="url(#mask4_250_2883)">
<path d="M262.142 271.096C282.349 271.096 309.337 269.821 334.783 269.821C340.098 226.704 342.976 193.682 354.91 147.762C329.583 146.638 275.326 146.99 267.614 149.005C266.069 190.287 264.529 230.909 262.139 271.093" fill="white"/>
<path d="M262.142 271.637C262.068 271.637 261.995 271.622 261.928 271.593C261.86 271.564 261.799 271.521 261.748 271.467C261.698 271.414 261.659 271.35 261.633 271.281C261.608 271.212 261.597 271.138 261.602 271.065C264.044 229.988 265.652 186.955 267.075 148.988C267.08 148.872 267.121 148.761 267.194 148.67C267.267 148.58 267.367 148.515 267.479 148.486C275.387 146.418 330.378 146.134 354.935 147.226C355.016 147.229 355.094 147.251 355.165 147.289C355.236 147.327 355.298 147.38 355.345 147.444C355.393 147.509 355.426 147.583 355.441 147.662C355.456 147.741 355.454 147.822 355.434 147.9C345.194 187.297 341.608 217.351 337.459 252.154C336.775 257.876 336.061 263.788 335.319 269.888C335.302 270.018 335.239 270.138 335.14 270.226C335.042 270.313 334.915 270.361 334.783 270.361C321.335 270.361 307.624 270.713 294.365 271.054C282.694 271.354 271.669 271.637 262.141 271.637M268.139 149.439C266.729 187.137 265.129 229.787 262.713 270.556C272.096 270.546 282.906 270.268 294.338 269.975C307.445 269.638 320.996 269.29 334.304 269.282C335.032 263.359 335.726 257.607 336.385 252.026C340.517 217.377 344.09 187.424 354.219 148.277C329.784 147.238 277.152 147.494 268.137 149.441" fill="black"/>
<path d="M162.542 272.523C163.883 246.52 161.321 218.925 150.922 195.056C144.953 208.298 137.946 221.047 129.967 233.185C127.413 228.825 125.153 224.228 122.892 219.632C122.312 218.452 121.732 217.273 121.151 216.093C117.969 209.631 114.788 203.164 111.896 196.567C115.779 180.865 120.068 165.265 125.049 149.888C125.653 147.743 126.519 145.68 127.628 143.746C130.079 139.845 134.275 137.427 138.396 135.365C149.663 129.707 161.645 125.601 174.014 123.159C175.162 121.355 176.797 119.912 178.73 118.997C180.41 125.419 184.401 131.023 189.037 135.769C191.166 137.95 193.978 140.138 196.864 139.828C204.739 137.128 209.232 128.983 215.836 123.909C218.141 122.138 220.942 120.686 224.079 120.974C230.877 122.285 237.676 123.596 244.475 124.907C255.699 127.067 267.303 129.389 276.638 135.99C278.829 137.519 280.813 139.326 282.54 141.365C293.288 165.759 301.504 191.217 308.086 217.049C311.288 229.607 314.114 242.774 311.312 255.731C309.616 259.55 306.793 262.784 303.601 265.484C301.698 267.195 299.496 268.541 297.107 269.457C294.368 270.407 291.413 270.473 288.515 270.53C282.367 270.65 276.219 270.769 270.07 270.888L162.542 272.523Z" fill="#008582"/>
<path d="M162.478 231.754C155.176 236.398 149.619 243.332 146.676 251.471C146.282 252.563 145.933 253.752 146.244 254.873C146.322 255.17 146.459 255.448 146.647 255.691C146.835 255.933 147.07 256.135 147.338 256.284C147.606 256.433 147.902 256.526 148.207 256.557C148.512 256.589 148.821 256.558 149.114 256.467C148.983 257.094 149.093 257.747 149.422 258.297C149.751 258.847 150.274 259.253 150.888 259.435C151.503 259.617 152.163 259.561 152.738 259.279C153.313 258.997 153.761 258.508 153.993 257.911C154.199 258.26 154.513 258.531 154.888 258.684C155.264 258.836 155.679 258.86 156.069 258.753C156.845 258.519 157.558 258.112 158.155 257.565C159.808 256.258 161.46 254.952 163.112 253.648C165.246 251.961 167.4 250.265 169.839 249.064C171.169 248.409 172.586 247.901 173.782 247.028C175.011 246.115 175.937 244.852 176.438 243.405C176.939 241.959 176.992 240.394 176.59 238.917C175.804 236.306 173.615 234.383 171.406 232.78C170.257 231.947 169.017 231.138 167.61 230.969C165.546 230.724 163.537 231.903 162.477 231.755" fill="white"/>
<path d="M148.478 273.203C148.367 273.203 148.259 273.169 148.168 273.105C148.077 273.042 148.008 272.952 147.97 272.848L144.745 264.018C144.715 263.937 144.706 263.85 144.716 263.765C144.727 263.68 144.758 263.599 144.806 263.528C144.855 263.457 144.92 263.399 144.995 263.358C145.071 263.317 145.155 263.295 145.241 263.293L184.428 262.105C184.571 262.103 184.71 262.156 184.814 262.255C184.917 262.354 184.977 262.49 184.98 262.633L185.158 271.898C185.159 271.97 185.147 272.04 185.121 272.107C185.095 272.173 185.056 272.233 185.006 272.285C184.957 272.336 184.898 272.377 184.832 272.405C184.767 272.433 184.697 272.448 184.625 272.449L148.486 273.205L148.478 273.203ZM146.018 264.355L148.853 272.118L184.066 271.377L183.91 263.195L146.018 264.355Z" fill="black"/>
<path d="M176.574 93.0014C178.4 105.215 179.167 117.564 178.867 129.909C178.757 130.936 178.9 131.975 179.284 132.934C179.837 133.841 180.632 134.576 181.58 135.057C187.811 138.837 195.496 140.566 202.547 138.712C209.597 136.858 215.737 131.072 216.391 123.248C213.415 113.221 208.439 99.2398 204.595 83.1552C195.959 86.98 186.919 89.8878 176.573 92.9992" fill="white"/>
<path d="M196.619 140C191.2 139.928 185.904 138.379 181.3 135.52C180.264 134.99 179.398 134.179 178.802 133.18C178.375 132.141 178.212 131.013 178.327 129.896C178.624 117.582 177.859 105.264 176.04 93.0808C176.021 92.9525 176.049 92.8216 176.118 92.712C176.188 92.6024 176.294 92.5215 176.418 92.484C187.544 89.1355 196.105 86.3271 204.375 82.6648C204.447 82.6326 204.526 82.6167 204.605 82.6183C204.684 82.6199 204.762 82.6389 204.833 82.674C204.904 82.7091 204.967 82.7594 205.016 82.8214C205.066 82.8834 205.101 82.9555 205.119 83.0326C207.84 94.411 211.183 104.918 213.872 113.361C214.988 116.863 216.04 120.17 216.909 123.097C216.928 123.161 216.935 123.229 216.929 123.295C216.306 130.756 210.579 137.162 202.684 139.235C200.704 139.75 198.665 140.007 196.619 140.001M177.176 93.3843C178.954 105.478 179.7 117.702 179.406 129.922C179.302 130.862 179.425 131.812 179.764 132.694C180.276 133.507 181 134.165 181.857 134.598C188.43 138.585 195.921 139.897 202.409 138.192C208.586 136.571 215.12 131.341 215.843 123.306C214.984 120.414 213.943 117.146 212.842 113.688C210.199 105.384 206.922 95.0872 204.22 83.9118C196.193 87.4224 187.862 90.1633 177.176 93.3843Z" fill="black"/>
<path d="M280.854 268.037C267.216 268.037 252.392 267.708 232.717 265.013C221.636 263.496 211.171 262.063 202.31 261.19C202.239 261.183 202.171 261.162 202.108 261.129C202.046 261.095 201.99 261.05 201.946 260.995C201.901 260.94 201.867 260.877 201.847 260.809C201.826 260.741 201.819 260.669 201.826 260.599C201.833 260.528 201.854 260.46 201.888 260.397C201.921 260.335 201.967 260.279 202.022 260.234C202.077 260.19 202.14 260.156 202.208 260.135C202.276 260.115 202.347 260.108 202.418 260.115C211.295 260.99 221.77 262.425 232.861 263.943C260.829 267.771 292.53 272.112 300.309 267.129C306.82 262.958 311.28 256.701 311.672 251.19C312.121 244.867 310.882 230.317 309.663 224.476C304.601 200.208 286.642 147.276 280.047 139.849C273.735 132.742 264.05 129.85 255.468 127.697C242.7 124.498 229.739 122.118 216.666 120.573C214.009 129.137 208.51 136.537 201.076 141.551C199.235 142.798 197.033 141.729 195.09 140.787C194.722 140.609 194.361 140.434 194.013 140.279C193.543 140.15 193.065 140.051 192.582 139.983C189.308 139.411 182.498 138.222 179.191 133.2C177.422 130.517 176.939 127.115 177.751 123.079C165.908 125.028 154.362 128.48 143.393 133.352C138.598 135.464 133.226 138.224 129.721 142.672C126.571 146.673 125.08 151.792 123.764 156.307C116.257 182.075 118.427 170.34 112.223 196.447C112.208 196.518 112.18 196.586 112.139 196.645C112.098 196.705 112.046 196.756 111.985 196.795C111.924 196.834 111.855 196.861 111.784 196.873C111.712 196.885 111.639 196.882 111.569 196.866C111.498 196.849 111.432 196.818 111.374 196.775C111.315 196.733 111.266 196.678 111.229 196.616C111.192 196.554 111.168 196.485 111.158 196.413C111.148 196.341 111.153 196.268 111.172 196.198C117.38 170.072 115.215 181.79 122.73 156.006C124.073 151.396 125.595 146.169 128.876 142.005C132.526 137.369 138.044 134.531 142.96 132.364C154.257 127.347 166.159 123.825 178.366 121.886C178.454 121.872 178.543 121.88 178.627 121.909C178.711 121.938 178.786 121.987 178.847 122.052C178.907 122.117 178.95 122.196 178.973 122.282C178.996 122.368 178.997 122.458 178.976 122.544C178.007 126.623 178.382 130.008 180.095 132.607C183.145 137.239 189.646 138.373 192.77 138.919C193.342 138.989 193.905 139.114 194.452 139.292C194.812 139.45 195.184 139.631 195.563 139.815C197.327 140.671 199.148 141.554 200.474 140.657C207.827 135.691 213.232 128.33 215.767 119.826C215.803 119.705 215.881 119.601 215.987 119.532C216.093 119.462 216.219 119.433 216.345 119.448C229.616 120.996 242.773 123.401 255.733 126.649C264.471 128.84 274.34 131.794 280.855 139.131C287.976 147.149 306.082 202.009 310.722 224.254C311.954 230.156 313.206 244.868 312.75 251.265C312.336 257.104 307.682 263.687 300.895 268.037C298.186 269.771 292.981 270.462 286.154 270.462" fill="black"/>
<path d="M195.047 148.793C191.629 165.761 188.426 182.795 185.437 199.894C184.931 202.791 184.429 205.751 184.687 208.697C185.051 212.85 186.876 216.539 188.656 220.066C190.829 224.373 193.002 228.68 195.927 232.954C199.436 224.988 202.523 216.844 205.176 208.554C206.076 189.619 199.9 171.207 199.402 152.248C199.37 151.075 199.348 149.842 198.877 148.83C198.407 147.818 197.311 147.161 195.047 148.792" fill="#18BAB7"/>
<path d="M195.929 233.495C195.841 233.495 195.754 233.473 195.677 233.432C195.599 233.391 195.533 233.332 195.483 233.259C192.539 228.958 190.321 224.564 188.176 220.314C186.467 216.924 184.529 213.084 184.15 208.746C183.88 205.672 184.426 202.554 184.906 199.801C187.882 182.777 191.117 165.579 194.519 148.687C194.546 148.553 194.624 148.434 194.735 148.356C195.991 147.449 197.071 147.106 197.949 147.334C198.266 147.424 198.559 147.586 198.806 147.805C199.052 148.025 199.245 148.298 199.371 148.603C199.801 149.737 199.995 150.946 199.943 152.157V152.234C200.165 160.654 201.535 169.117 202.859 177.299C204.511 187.494 206.217 198.035 205.717 208.58C205.714 208.627 205.706 208.674 205.692 208.719C203.032 217.027 199.938 225.19 196.423 233.175C196.384 233.263 196.323 233.339 196.245 233.395C196.167 233.452 196.075 233.486 195.979 233.495C195.962 233.495 195.945 233.495 195.929 233.495ZM195.535 149.111C192.149 165.926 188.932 183.042 185.97 199.986C185.5 202.674 184.968 205.72 185.225 208.651C185.587 212.784 187.473 216.525 189.139 219.823C191.128 223.958 193.361 227.97 195.827 231.839C199.156 224.199 202.098 216.396 204.641 208.46C205.127 198.048 203.432 187.589 201.794 177.473C200.463 169.254 199.086 160.755 198.863 152.262V152.184C198.911 151.122 198.751 150.06 198.391 149.059C198.331 148.899 198.235 148.754 198.111 148.636C197.987 148.518 197.838 148.43 197.675 148.378C197.314 148.284 196.658 148.341 195.538 149.111" fill="black"/>
<path d="M202.366 261.194C202.237 261.194 202.113 261.148 202.015 261.064C201.917 260.981 201.853 260.865 201.833 260.737C201.813 260.61 201.839 260.48 201.907 260.371C201.974 260.261 202.079 260.179 202.201 260.14C206.565 258.742 208.327 255.234 208.097 248.41C207.604 233.841 205.391 231.898 204.462 231.74C204.331 231.717 204.213 231.647 204.13 231.542C204.048 231.438 204.007 231.307 204.015 231.174C204.024 231.041 204.081 230.916 204.175 230.823C204.27 230.73 204.396 230.675 204.529 230.668L207.15 230.552C229.513 229.565 254.819 228.446 270.471 226.526C267.825 218.256 265.3 210.701 262.853 203.386C260.306 195.77 257.672 187.891 254.928 179.275C254.905 179.207 254.896 179.135 254.902 179.064C254.907 178.992 254.926 178.923 254.959 178.859C254.991 178.795 255.036 178.738 255.091 178.692C255.145 178.645 255.209 178.61 255.277 178.588C255.345 178.567 255.417 178.559 255.489 178.565C255.56 178.572 255.629 178.592 255.693 178.626C255.756 178.659 255.812 178.705 255.858 178.76C255.903 178.816 255.937 178.88 255.958 178.949C258.698 187.556 261.332 195.429 263.877 203.044C266.386 210.542 268.98 218.296 271.698 226.816C271.723 226.892 271.73 226.972 271.72 227.05C271.71 227.129 271.683 227.205 271.64 227.272C271.598 227.339 271.541 227.396 271.473 227.438C271.406 227.481 271.331 227.508 271.252 227.518C255.612 229.495 229.891 230.631 207.198 231.633L206.222 231.677C207.416 233.232 208.802 237.322 209.176 248.377C209.343 253.292 208.737 259.182 202.533 261.171C202.48 261.189 202.425 261.198 202.369 261.197" fill="black"/>
<path d="M37.5932 273.78C37.4906 273.78 37.3901 273.75 37.3035 273.695C37.217 273.64 37.1479 273.561 37.1044 273.469L0.0537542 194.11C0.0154492 194.028 -0.00161073 193.938 0.0041434 193.847C0.00989753 193.757 0.038281 193.669 0.0866834 193.593C0.135086 193.516 0.201954 193.453 0.281137 193.409C0.36032 193.365 0.449277 193.342 0.539827 193.342L110.872 193.946C110.973 193.947 111.071 193.976 111.156 194.029C111.241 194.083 111.31 194.159 111.354 194.249L149.386 272.356C149.426 272.439 149.444 272.529 149.44 272.621C149.435 272.712 149.407 272.8 149.359 272.878C149.311 272.955 149.244 273.019 149.164 273.064C149.085 273.108 148.995 273.132 148.904 273.133L37.5932 273.781V273.78ZM1.38991 194.426L37.9361 272.698L148.04 272.058L110.533 195.024L1.38991 194.426Z" fill="black"/>
<path d="M70.3277 225.708C67.1953 225.401 63.7733 226.238 62.4966 229.115C61.2198 231.992 62.1984 235.596 64.5235 237.717C66.8485 239.839 70.2845 240.522 73.3544 239.831C75.0124 239.458 76.6559 238.654 77.6102 237.246C78.2496 236.246 78.5806 235.08 78.5618 233.893C78.5883 230.02 76.8222 226.344 70.3267 225.707" fill="white"/>
<path d="M71.0049 240.633C68.491 240.669 66.0527 239.773 64.1605 238.118C61.5838 235.766 60.677 231.887 62.0045 228.897C63.2143 226.168 66.3446 224.778 70.3806 225.17C77.6339 225.882 79.1267 230.309 79.1018 233.897C79.1237 235.191 78.7603 236.463 78.0578 237.55C76.8837 239.282 74.9173 240.035 73.4736 240.359C72.6632 240.54 71.8354 240.632 71.0049 240.633ZM69.1492 226.19C67.2805 226.19 64.1907 226.627 62.9923 229.332C61.8484 231.911 62.6456 235.27 64.889 237.318C66.0236 238.285 67.3716 238.97 68.8223 239.315C70.273 239.661 71.7849 239.657 73.2338 239.305C74.7924 239.038 76.1941 238.196 77.1613 236.946C77.7386 236.032 78.0368 234.971 78.0195 233.89C78.0514 229.324 75.4438 226.753 70.272 226.246C70.0058 226.22 69.6142 226.192 69.1465 226.192" fill="black"/>
<path d="M199.377 140.115C197.875 139.023 195.851 139.115 194.229 139.787C191.84 140.775 189.824 142.178 189.378 144.725C189.265 145.376 190.521 148.095 191.168 149.076C191.934 150.24 193.878 152.363 195.561 152.501C196.998 152.618 198.334 151.767 199.41 150.807C201.354 149.07 202.944 146.492 202.326 143.959C201.953 142.438 200.868 141.197 199.379 140.115" fill="#18BAB7"/>
<path d="M195.837 153.051C195.729 153.051 195.624 153.048 195.518 153.038C193.448 152.87 191.351 150.335 190.717 149.373C190.203 148.592 188.681 145.584 188.849 144.63C189.389 141.538 192.06 140.1 194.023 139.287C196.073 138.44 198.193 138.585 199.694 139.677C201.443 140.949 202.475 142.308 202.848 143.829C203.431 146.209 202.28 148.968 199.77 151.209C198.383 152.446 197.093 153.051 195.837 153.051ZM196.672 139.83C195.904 139.836 195.145 139.991 194.436 140.285C191.653 141.437 190.258 142.835 189.911 144.816C189.873 145.276 190.926 147.725 191.62 148.778C192.422 149.996 194.243 151.851 195.606 151.961C196.657 152.052 197.779 151.539 199.05 150.403C199.878 149.665 202.522 147.028 201.801 144.084C201.491 142.822 200.595 141.664 199.06 140.55C198.361 140.061 197.525 139.808 196.672 139.829" fill="black"/>
<path d="M166.347 261.296C165.769 261.274 165.219 261.042 164.8 260.643C163.644 259.667 164.438 257.787 164.698 257.169C165.14 256.222 165.746 255.361 166.487 254.624C168.843 252.106 171.58 249.974 174.597 248.305C172.869 247.961 170.932 248.737 169.504 249.531C166.819 251.03 164.422 253.091 162.105 255.085C160.932 256.095 159.718 257.137 158.474 258.105C157.89 258.609 157.214 258.997 156.483 259.248C156.058 259.388 155.604 259.414 155.165 259.323C154.727 259.232 154.321 259.028 153.987 258.73C153.543 258.255 153.286 257.635 153.266 256.985C153.146 255.193 154.229 253.599 155.054 252.556C159.997 246.309 165.204 242.83 170.977 241.923C171.115 241.908 171.255 241.946 171.365 242.03C171.476 242.115 171.55 242.239 171.572 242.376C171.593 242.514 171.561 242.654 171.481 242.769C171.402 242.883 171.281 242.962 171.144 242.99C165.653 243.854 160.667 247.202 155.902 253.225C155.187 254.129 154.247 255.493 154.344 256.914C154.347 257.3 154.489 257.671 154.743 257.961C154.942 258.123 155.179 258.231 155.432 258.274C155.684 258.318 155.944 258.296 156.186 258.21C156.783 257.996 157.334 257.671 157.811 257.253C159.034 256.304 160.238 255.268 161.401 254.267C163.759 252.239 166.199 250.141 168.979 248.59C170.945 247.492 173.789 246.453 176.173 247.736C176.259 247.782 176.331 247.852 176.381 247.936C176.431 248.021 176.457 248.117 176.456 248.215C176.455 248.313 176.427 248.409 176.376 248.493C176.325 248.577 176.252 248.645 176.165 248.69C172.839 250.382 169.832 252.64 167.28 255.362C166.627 256.008 166.091 256.763 165.694 257.592C165.208 258.747 165.139 259.519 165.499 259.822C166.309 260.51 166.777 260.216 167.671 259.545L167.733 259.498C171.067 256.676 174.682 254.205 178.521 252.124C179.764 251.456 181.368 250.78 182.788 251.472C184.511 252.316 189.456 254.213 198.141 253.669C201.477 253.487 204.818 253.928 207.993 254.969C208.127 255.014 208.238 255.11 208.302 255.236C208.366 255.362 208.378 255.509 208.335 255.644C208.292 255.779 208.198 255.892 208.073 255.958C207.948 256.024 207.802 256.038 207.666 255.998C204.618 254.998 201.412 254.574 198.209 254.747C189.266 255.307 184.113 253.323 182.314 252.443C181.342 251.967 180.11 252.497 179.033 253.074C175.25 255.126 171.689 257.562 168.405 260.343L168.321 260.408C167.778 260.911 167.087 261.223 166.351 261.299" fill="black"/>
<path d="M151.21 260.423C150.98 260.424 150.752 260.39 150.533 260.322C149.267 259.924 148.723 258.517 148.634 257.334C148.422 254.478 149.947 251.825 151.112 250.076C155.044 244.179 159.105 240.46 163.178 239.019C163.313 238.972 163.462 238.98 163.591 239.041C163.72 239.103 163.82 239.214 163.867 239.349C163.915 239.484 163.907 239.632 163.845 239.762C163.784 239.891 163.673 239.99 163.538 240.038C159.687 241.398 155.809 244.976 152.009 250.678C150.933 252.292 149.525 254.732 149.711 257.256C149.77 258.048 150.105 259.057 150.857 259.293C151.09 259.348 151.331 259.351 151.565 259.303C151.799 259.255 152.019 259.156 152.211 259.014C152.679 258.67 153.091 258.256 153.433 257.786C153.476 257.728 153.531 257.679 153.594 257.642C153.657 257.606 153.726 257.583 153.799 257.574C153.871 257.565 153.944 257.57 154.014 257.59C154.084 257.61 154.149 257.644 154.205 257.69C154.262 257.736 154.308 257.793 154.342 257.857C154.376 257.921 154.397 257.992 154.403 258.064C154.409 258.137 154.401 258.21 154.378 258.279C154.355 258.348 154.319 258.411 154.271 258.466C153.861 259.023 153.366 259.513 152.804 259.917C152.333 260.238 151.779 260.415 151.209 260.426" fill="black"/>
<path d="M147.862 257.225C147.201 257.222 146.557 257.017 146.016 256.638C144.315 255.45 146.267 248.987 148.44 245.4C152.824 238.159 158.425 232.936 164.631 230.29C167.813 228.159 181.869 232.44 187.79 234.387C189.56 235.02 191.412 235.4 193.288 235.514C198.481 235.676 205.17 235.767 206.923 235.493C207.065 235.471 207.209 235.506 207.325 235.59C207.441 235.675 207.519 235.802 207.541 235.943C207.563 236.085 207.528 236.229 207.444 236.345C207.359 236.461 207.232 236.539 207.091 236.561C204.734 236.927 195.152 236.652 193.254 236.593C191.275 236.476 189.322 236.079 187.454 235.414C177.853 232.256 167.252 229.731 165.21 231.202C165.176 231.225 165.14 231.245 165.102 231.261C159.169 233.775 153.578 238.994 149.36 245.958C146.93 249.965 145.943 255.27 146.633 255.753C146.93 255.971 147.282 256.103 147.649 256.133C148.016 256.164 148.385 256.091 148.713 255.924C148.774 255.886 148.842 255.86 148.913 255.848C148.984 255.837 149.057 255.84 149.127 255.857C149.197 255.874 149.263 255.904 149.32 255.947C149.378 255.99 149.427 256.043 149.464 256.105C149.501 256.167 149.525 256.236 149.535 256.307C149.545 256.378 149.54 256.451 149.522 256.52C149.503 256.59 149.471 256.655 149.427 256.712C149.383 256.769 149.328 256.816 149.266 256.852C148.84 257.1 148.355 257.229 147.862 257.225" fill="black"/>
<path d="M178.838 118.402C181.754 125.557 188.019 135.463 194.388 139.287C190.923 142.317 186.573 147.085 179.283 152.51C176.718 139.656 174.053 133.541 172.508 123.495C174.179 122.253 176.757 119.653 178.838 118.402Z" fill="white"/>
<path d="M179.284 153.051C179.159 153.051 179.038 153.008 178.942 152.929C178.845 152.85 178.779 152.741 178.754 152.619C177.557 146.624 176.317 142.015 175.222 137.949C173.857 133.228 172.772 128.43 171.974 123.58C171.959 123.483 171.971 123.384 172.008 123.293C172.045 123.202 172.106 123.122 172.185 123.063C172.807 122.602 173.573 121.932 174.383 121.227C175.685 120.022 177.082 118.924 178.56 117.943C178.627 117.903 178.702 117.878 178.779 117.869C178.856 117.86 178.935 117.869 179.009 117.893C179.082 117.918 179.15 117.958 179.207 118.011C179.264 118.064 179.309 118.129 179.338 118.201C182.404 125.72 188.654 135.219 194.667 138.828C194.739 138.872 194.801 138.932 194.846 139.004C194.891 139.076 194.918 139.158 194.926 139.242C194.934 139.327 194.921 139.412 194.89 139.491C194.858 139.57 194.808 139.64 194.744 139.696C193.73 140.583 192.654 141.607 191.407 142.792C187.695 146.426 183.753 149.817 179.606 152.945C179.512 153.016 179.399 153.053 179.282 153.053M173.09 123.73C173.883 128.432 174.943 133.084 176.266 137.664C177.312 141.553 178.493 145.942 179.644 151.563C183.502 148.597 187.181 145.405 190.661 142.003C191.699 141.016 192.62 140.14 193.491 139.357C187.633 135.482 181.693 126.527 178.585 119.202C177.369 120.079 176.203 121.025 175.093 122.034C174.373 122.663 173.688 123.261 173.089 123.728" fill="black"/>
<path d="M198.736 139.253C202.369 143.829 206.001 148.406 210.372 153.104C215.66 142.779 221.008 132.134 223.415 120.787C221.152 119.738 216.232 116.486 213.967 115.436C214.625 117.848 215.965 120.027 215.646 120.787C215.44 121.273 204.4 133.936 198.736 139.253Z" fill="white"/>
<path d="M210.371 153.644C210.297 153.644 210.224 153.629 210.155 153.599C210.087 153.57 210.026 153.526 209.976 153.472C205.586 148.755 201.889 144.095 198.31 139.592C198.226 139.485 198.185 139.352 198.195 139.216C198.205 139.081 198.265 138.955 198.364 138.862C204.024 133.55 214.502 121.51 215.151 120.562C215.216 120.271 214.79 119.227 214.478 118.461C214.075 117.523 213.729 116.561 213.443 115.581C213.415 115.481 213.416 115.375 213.447 115.276C213.477 115.177 213.536 115.089 213.615 115.022C213.695 114.955 213.792 114.913 213.894 114.9C213.997 114.886 214.102 114.903 214.195 114.948C215.353 115.484 217.191 116.585 218.969 117.648C220.723 118.699 222.537 119.785 223.643 120.297C223.754 120.348 223.845 120.436 223.899 120.545C223.954 120.655 223.97 120.78 223.945 120.899C221.449 132.665 215.82 143.654 210.853 153.349C210.814 153.426 210.756 153.493 210.686 153.543C210.615 153.593 210.533 153.626 210.447 153.637C210.423 153.641 210.398 153.643 210.373 153.643M199.468 139.304C202.792 143.492 206.235 147.809 210.245 152.17C215.032 142.818 220.349 132.285 222.8 121.088C221.642 120.508 220.005 119.528 218.415 118.575C217.176 117.833 215.906 117.072 214.878 116.511C215.073 117.051 215.284 117.568 215.48 118.049C216.046 119.434 216.42 120.348 216.145 120.997C215.858 121.673 205.127 133.899 199.468 139.306" fill="black"/>
<path d="M161.319 233.154C161.188 233.154 161.061 233.106 160.962 233.019C160.864 232.933 160.8 232.813 160.783 232.683C158.374 214.121 151.59 194.68 142.173 179.346C142.131 179.286 142.102 179.218 142.087 179.146C142.072 179.073 142.072 178.999 142.087 178.927C142.102 178.855 142.131 178.787 142.174 178.726C142.216 178.666 142.27 178.615 142.333 178.577C142.395 178.538 142.465 178.513 142.538 178.502C142.611 178.491 142.685 178.496 142.756 178.515C142.827 178.534 142.894 178.567 142.951 178.613C143.009 178.659 143.057 178.716 143.091 178.781C152.587 194.239 159.424 213.836 161.853 232.545C161.862 232.616 161.858 232.687 161.839 232.756C161.821 232.824 161.789 232.888 161.745 232.944C161.702 233 161.648 233.048 161.586 233.083C161.525 233.118 161.457 233.141 161.387 233.15C161.364 233.153 161.34 233.154 161.317 233.154" fill="black"/>
<path d="M129.897 234.101C129.8 234.101 129.704 234.075 129.621 234.026C129.537 233.976 129.469 233.905 129.422 233.82C129.376 233.734 129.353 233.638 129.357 233.541C129.361 233.444 129.39 233.35 129.443 233.268C136.297 222.649 144.868 208.673 150.357 194.754C150.381 194.685 150.419 194.623 150.468 194.569C150.517 194.516 150.576 194.473 150.642 194.443C150.708 194.413 150.779 194.396 150.852 194.394C150.924 194.393 150.996 194.405 151.064 194.432C151.131 194.458 151.193 194.498 151.244 194.549C151.296 194.6 151.337 194.66 151.365 194.727C151.393 194.794 151.407 194.866 151.406 194.938C151.405 195.011 151.39 195.083 151.362 195.149C145.837 209.158 137.231 223.192 130.352 233.855C130.303 233.931 130.236 233.993 130.156 234.036C130.077 234.079 129.988 234.102 129.898 234.101" fill="black"/>
<path d="M162.543 263.105H162.537C162.466 263.105 162.396 263.09 162.331 263.062C162.266 263.035 162.206 262.994 162.157 262.944C162.107 262.893 162.068 262.833 162.041 262.767C162.015 262.701 162.001 262.631 162.002 262.56L162.088 253.946C162.089 253.803 162.147 253.667 162.248 253.567C162.349 253.467 162.486 253.41 162.628 253.41H162.633C162.704 253.411 162.775 253.426 162.84 253.453C162.905 253.481 162.964 253.522 163.014 253.572C163.064 253.623 163.103 253.683 163.13 253.749C163.156 253.814 163.169 253.885 163.169 253.956L163.083 262.57C163.082 262.713 163.024 262.849 162.923 262.949C162.822 263.049 162.685 263.105 162.543 263.105Z" fill="black"/>
<path d="M215.505 64.6922C215.462 64.6922 215.42 64.6869 215.378 64.6765C215.239 64.6429 215.119 64.5554 215.044 64.4332C214.97 64.3111 214.947 64.1644 214.98 64.0252C215.52 61.7925 215.761 60.5876 216.199 58.4013C216.211 58.33 216.237 58.2618 216.276 58.2007C216.315 58.1397 216.366 58.0871 216.425 58.0461C216.485 58.005 216.552 57.9764 216.623 57.9618C216.694 57.9472 216.767 57.9471 216.838 57.9613C216.909 57.9755 216.976 58.0038 217.036 58.0446C217.096 58.0854 217.147 58.1377 217.186 58.1986C217.225 58.2594 217.252 58.3275 217.264 58.3988C217.276 58.4701 217.274 58.5431 217.258 58.6136C216.816 60.8133 216.573 62.0258 216.03 64.2796C216.001 64.3972 215.934 64.5017 215.839 64.5766C215.744 64.6514 215.626 64.6921 215.505 64.6922Z" fill="black"/>
<path d="M270.754 227.565C270.611 227.568 270.472 227.514 270.369 227.415C270.265 227.316 270.206 227.18 270.203 227.037C270.2 226.893 270.254 226.755 270.353 226.651C270.452 226.548 270.588 226.488 270.731 226.485C274.512 226.323 278.346 226.223 282.132 226.177H282.137C282.28 226.176 282.418 226.232 282.52 226.333C282.622 226.433 282.68 226.57 282.681 226.714C282.681 226.857 282.625 226.995 282.525 227.096C282.424 227.198 282.287 227.256 282.144 227.257C278.37 227.303 274.547 227.406 270.777 227.565H270.753" fill="black"/>
<path d="M304.076 182.126C304.005 182.129 303.934 182.117 303.868 182.092C303.801 182.066 303.741 182.029 303.689 181.98C303.637 181.931 303.596 181.873 303.566 181.808C303.537 181.744 303.521 181.674 303.519 181.603C303.517 181.532 303.529 181.461 303.554 181.395C303.579 181.329 303.617 181.268 303.666 181.216C303.714 181.164 303.773 181.123 303.837 181.094C303.902 181.065 303.972 181.048 304.043 181.046C315.463 180.348 327.05 180.139 338.486 180.426C338.557 180.427 338.627 180.443 338.692 180.472C338.757 180.501 338.815 180.542 338.864 180.593C338.913 180.645 338.952 180.705 338.977 180.771C339.003 180.838 339.015 180.908 339.013 180.979C339.011 181.05 338.996 181.12 338.967 181.185C338.938 181.25 338.897 181.308 338.846 181.357C338.794 181.406 338.734 181.444 338.668 181.47C338.601 181.495 338.531 181.508 338.46 181.506C327.054 181.22 315.497 181.428 304.111 182.124H304.078" fill="black"/>
<path d="M308.526 192.646C308.383 192.647 308.245 192.592 308.142 192.491C308.04 192.391 307.982 192.254 307.98 192.111C307.979 191.968 308.035 191.83 308.135 191.728C308.235 191.625 308.372 191.567 308.515 191.566L333.043 191.09C333.114 191.088 333.185 191.101 333.251 191.127C333.317 191.153 333.377 191.191 333.428 191.24C333.48 191.29 333.521 191.348 333.549 191.413C333.577 191.478 333.593 191.548 333.594 191.619C333.595 191.69 333.583 191.761 333.557 191.827C333.531 191.893 333.493 191.953 333.443 192.004C333.394 192.055 333.335 192.096 333.27 192.125C333.205 192.153 333.135 192.168 333.065 192.17L308.536 192.645L308.526 192.646Z" fill="black"/>
<path d="M321.273 238.111C321.202 238.113 321.131 238.1 321.065 238.074C320.999 238.049 320.939 238.01 320.888 237.961C320.837 237.912 320.796 237.853 320.767 237.788C320.739 237.723 320.723 237.653 320.722 237.582C320.72 237.511 320.733 237.441 320.759 237.375C320.784 237.309 320.823 237.248 320.872 237.197C320.921 237.146 320.98 237.105 321.045 237.077C321.11 237.048 321.18 237.033 321.251 237.031L333.883 236.487C333.954 236.483 334.025 236.493 334.092 236.517C334.159 236.541 334.221 236.578 334.273 236.626C334.326 236.675 334.368 236.733 334.397 236.798C334.427 236.862 334.443 236.932 334.445 237.004C334.452 237.147 334.401 237.286 334.304 237.392C334.208 237.497 334.073 237.56 333.93 237.566L321.297 238.111H321.273" fill="black"/>
<path d="M226.515 137.735C226.475 137.735 226.435 137.731 226.396 137.722C226.256 137.691 226.135 137.605 226.058 137.484C225.981 137.364 225.956 137.217 225.987 137.078C226.685 133.965 227.264 130.786 227.707 127.626C227.727 127.484 227.802 127.356 227.917 127.27C228.031 127.184 228.175 127.146 228.317 127.166C228.459 127.186 228.588 127.262 228.674 127.376C228.76 127.49 228.797 127.634 228.778 127.776C228.331 130.963 227.745 134.172 227.042 137.312C227.015 137.432 226.948 137.539 226.852 137.616C226.756 137.692 226.637 137.734 226.515 137.734" fill="black"/>
<path d="M233.193 133.052C233.177 133.052 233.16 133.052 233.144 133.052C233.002 133.039 232.87 132.969 232.779 132.859C232.687 132.75 232.643 132.608 232.656 132.465L233.156 126.919C233.173 126.779 233.243 126.652 233.353 126.563C233.462 126.475 233.601 126.432 233.741 126.445C233.882 126.458 234.011 126.525 234.103 126.631C234.194 126.738 234.24 126.876 234.232 127.017L233.731 132.563C233.719 132.697 233.657 132.823 233.557 132.914C233.457 133.005 233.326 133.055 233.191 133.054" fill="black"/>
<path d="M201.619 236.719C201.6 236.719 201.58 236.719 201.565 236.719C201.494 236.711 201.426 236.69 201.363 236.656C201.301 236.622 201.246 236.576 201.201 236.521C201.156 236.466 201.123 236.403 201.103 236.335C201.082 236.266 201.076 236.195 201.083 236.124C201.156 235.432 201.274 234.745 201.438 234.068C201.594 233.299 201.9 232.569 202.339 231.919C202.589 231.558 202.916 231.259 203.298 231.043C203.679 230.826 204.104 230.699 204.542 230.67H204.555C204.626 230.669 204.696 230.682 204.762 230.708C204.828 230.735 204.888 230.774 204.939 230.823C204.99 230.873 205.03 230.932 205.058 230.997C205.086 231.062 205.101 231.132 205.102 231.203C205.102 231.274 205.089 231.345 205.063 231.41C205.037 231.476 204.998 231.536 204.948 231.587C204.898 231.638 204.839 231.678 204.774 231.706C204.709 231.734 204.639 231.749 204.568 231.75C204.295 231.775 204.031 231.861 203.796 232.001C203.56 232.141 203.359 232.332 203.207 232.56C202.853 233.094 202.608 233.693 202.485 234.322C202.334 234.953 202.223 235.592 202.156 236.237C202.143 236.37 202.08 236.494 201.981 236.583C201.882 236.673 201.753 236.723 201.62 236.723" fill="black"/>
<path d="M202.21 261.033C201.965 261.024 201.725 260.961 201.507 260.848C201.29 260.735 201.1 260.574 200.953 260.378C200.716 260.056 200.541 259.693 200.439 259.306C199.958 257.746 199.824 256.1 200.046 254.482C200.067 254.341 200.143 254.214 200.257 254.128C200.37 254.042 200.513 254.004 200.655 254.022C200.796 254.042 200.924 254.117 201.011 254.231C201.097 254.345 201.135 254.489 201.115 254.631C200.915 256.091 201.036 257.577 201.469 258.986C201.535 259.244 201.647 259.488 201.799 259.707C201.847 259.774 201.909 259.832 201.981 259.874C202.052 259.916 202.132 259.943 202.215 259.953C202.358 259.952 202.495 260.007 202.598 260.106C202.7 260.204 202.761 260.339 202.766 260.482C202.767 260.553 202.755 260.623 202.729 260.689C202.703 260.755 202.664 260.816 202.615 260.867C202.566 260.918 202.507 260.959 202.442 260.987C202.377 261.016 202.307 261.031 202.236 261.032L202.21 261.033Z" fill="black"/>
<path d="M220.658 26.445C220.969 36.7688 220.694 47.1018 219.835 57.3944C219.292 63.7974 217.921 70.103 215.757 76.1535C214.756 78.8923 213.848 80.2987 211.187 82.169C210.581 79.6846 207.743 78.9031 206.894 76.4754C205.849 73.4904 207.343 70.4325 205.01 68.0388C200.654 63.6218 197.245 58.363 194.99 52.5839C193.215 47.9565 192.285 42.9202 193.758 38.0935C194.602 35.4668 196.099 33.0972 198.108 31.2064C200.118 29.3155 202.574 27.9652 205.247 27.2816C209.642 26.1874 216.668 24.2545 220.658 26.445Z" fill="black"/>
<path d="M211.337 82.6882C211.267 82.7085 211.194 82.7144 211.122 82.7057C211.049 82.6969 210.98 82.6736 210.917 82.6372C210.854 82.6008 210.799 82.552 210.755 82.4937C210.711 82.4355 210.68 82.369 210.662 82.2982C210.387 81.1673 209.55 80.408 208.664 79.607C207.766 78.7926 206.837 77.9501 206.384 76.6549C206.019 75.448 205.859 74.1883 205.911 72.9284C205.891 71.2001 205.875 69.7046 204.621 68.4192C200.21 63.9531 196.76 58.6304 194.485 52.7796C192.325 47.1411 191.915 42.2858 193.24 37.9387C194.112 35.2225 195.658 32.772 197.736 30.8167C199.813 28.8613 202.352 27.4652 205.116 26.759L205.807 26.5862C210.242 25.4736 216.946 23.7934 220.918 25.9748C221.001 26.0202 221.07 26.0866 221.119 26.1674C221.168 26.2482 221.195 26.3405 221.197 26.435C221.511 36.7772 221.236 47.129 220.372 57.4399C219.827 63.8924 218.446 70.2467 216.262 76.3428C215.271 79.0594 214.347 80.6094 211.498 82.6153C211.448 82.6491 211.393 82.6749 211.336 82.692M204.828 27.9526C202.362 28.678 200.111 29.9957 198.271 31.7908C196.431 33.586 195.059 35.804 194.273 38.2514C193.021 42.3598 193.42 46.9845 195.495 52.3913C197.717 58.1049 201.086 63.3025 205.395 67.6631C206.949 69.258 206.97 71.1164 206.99 72.9143C206.942 74.0575 207.081 75.201 207.403 76.299C207.765 77.3349 208.555 78.0505 209.39 78.8072C210.249 79.4838 210.954 80.3346 211.459 81.3034C213.634 79.6583 214.392 78.3168 215.249 75.9696C217.398 69.9659 218.759 63.7084 219.296 57.3541C220.147 47.1865 220.424 36.9789 220.125 26.7801C216.478 25.0232 210.235 26.5878 206.068 27.6329L205.376 27.8057C205.193 27.8516 205.01 27.9008 204.828 27.9531" fill="black"/>
<path d="M152.819 53.5426C154.264 61.8199 153.595 70.3327 154.559 78.6758C155.522 87.019 158.418 95.5901 165.58 101.181C171.886 106.102 181.214 108.13 189.822 106.448C198.431 104.766 206.098 99.4268 209.751 92.5575C213.184 86.1019 212.373 73.0233 212.221 66.4478C216.157 66.5742 220.305 64.8568 222.321 61.9139C223.325 60.5104 223.734 58.7676 223.461 57.0638C223.188 55.36 222.255 53.8326 220.862 52.813C217.899 50.7121 214.448 50.7461 211 54.8307C210.619 49.444 209.066 44.3272 208.365 41.9736C206.463 35.5839 205.168 25.9175 200.288 23.6886C197.526 22.4259 191.935 21.7076 188.801 21.2847C183.386 20.5545 176.487 24.7628 170.991 25.4125C165.496 26.0622 160.19 29.3627 156.093 32.6393C151.191 36.5576 151.743 47.3495 152.824 53.5405" fill="white"/>
<path d="M192.667 106.314C191.767 106.575 190.853 106.796 189.926 106.977C181.146 108.691 171.689 106.633 165.248 101.605C158.986 96.7181 155.21 89.0214 154.022 78.7377C153.601 75.0803 153.489 71.3386 153.381 67.7244C153.241 63.0759 153.096 58.2675 152.288 53.6347C151.811 50.9014 149.738 37.024 155.752 32.2157C161.157 27.895 166.262 25.4268 170.925 24.8754C173.119 24.6156 175.527 23.779 178.076 22.8944C181.749 21.6187 185.546 20.302 188.869 20.7487L189.213 20.7946C192.415 21.2266 197.773 21.9449 200.509 23.1958C204.609 25.0698 206.272 31.6891 207.74 37.529C208.124 39.0563 208.486 40.4994 208.879 41.8178L208.925 41.9744C210.118 45.7497 210.956 49.6284 211.427 53.5597C214.493 50.4969 217.918 50.0659 221.171 52.3715C222.686 53.4676 223.704 55.1199 224.003 56.9659C224.301 58.8118 223.855 60.7008 222.762 62.2182C220.809 65.0742 216.847 66.951 212.775 66.992C212.789 67.5126 212.805 68.0673 212.823 68.6511C213.042 75.9147 213.374 86.8924 210.226 92.81C206.885 99.0928 200.307 104.098 192.667 106.312M153.352 53.4489C154.174 58.1584 154.319 63.0046 154.459 67.6914C154.567 71.2857 154.679 75.0009 155.095 78.614C156.247 88.6017 159.888 96.0511 165.914 100.754C172.115 105.595 181.237 107.574 189.72 105.918C198.202 104.262 205.689 99.0458 209.274 92.304C212.285 86.638 211.945 75.3994 211.744 68.6841C211.719 67.8826 211.696 67.1367 211.68 66.4595C211.679 66.3858 211.693 66.3126 211.721 66.2444C211.748 66.1761 211.79 66.1143 211.842 66.0625C211.894 66.011 211.957 65.9707 212.025 65.9439C212.093 65.9172 212.166 65.9046 212.239 65.907C216.155 66.0334 220.027 64.3056 221.874 61.6074C222.804 60.323 223.187 58.722 222.939 57.1557C222.69 55.5893 221.83 54.1856 220.548 53.2523C217.428 51.0418 214.353 51.6904 211.409 55.1767C211.339 55.2584 211.247 55.3177 211.144 55.347C211.041 55.3762 210.931 55.3741 210.83 55.3409C210.728 55.3077 210.638 55.245 210.572 55.1606C210.506 55.0762 210.466 54.9741 210.458 54.8672C210.089 49.6586 208.605 44.6775 207.892 42.2833L207.845 42.1251C207.447 40.7873 207.08 39.3323 206.694 37.7914C205.285 32.1886 203.69 25.8357 200.06 24.1776C197.468 22.9927 192.211 22.2873 189.071 21.8645L188.726 21.8186C185.659 21.4049 181.986 22.6827 178.432 23.9141C175.939 24.7782 173.363 25.6737 171.052 25.9464C166.592 26.4751 161.672 28.8672 156.427 33.0582C152.132 36.4915 152.086 46.1881 153.353 53.4479" fill="black"/>
<path d="M176.482 36.7969C176.32 40.5969 171.564 46.7689 168.062 47.7665C164.56 48.764 162.929 47.3554 160.885 44.183C158.216 47.5558 156.352 50.8444 153.339 52.6472C148.735 55.4043 142.077 53.3957 139.516 48.4772C136.955 43.5587 138.985 36.677 143.728 34.1915C140.498 35.6006 136.52 32.7787 135.81 29.1688C135.099 25.5589 137.052 21.8355 139.884 19.6925C142.715 17.5495 146.273 16.7269 149.679 15.6014C147.739 12.3274 148.656 7.80802 151.166 5.04172C153.676 2.27543 157.427 1.05755 161.085 0.857715C163.489 0.728636 165.985 1.01596 168.114 2.21926C169.231 2.85157 170.189 3.72959 170.917 4.7869C171.644 5.84421 172.122 7.05312 172.313 8.32218C174.742 3.8179 179.322 0.263626 184.29 0.55581C189.257 0.847994 193.888 6.04249 194.962 9.99157C196.774 6.7284 199.39 3.84544 202.994 3.40258C210.148 2.52332 212.819 8.27141 211.008 16.6011C214.451 14.0692 220.362 14.6941 223.13 19.8642C225.19 23.7139 224.85 30.4849 222.576 34.1883C220.303 37.8916 210.761 42.4034 202.855 38.6288C198.462 36.5317 195.942 33.0536 194.17 29.6808C192.73 33.6201 191.647 36.3475 186.751 38.9804C183.179 40.9009 178.402 40.1918 176.481 36.7963" fill="black"/>
<path d="M214.652 39.8325C210.965 40.9003 206.619 41.024 202.621 39.1153C198.288 37.0463 195.805 33.6799 194.265 30.9806C193.027 34.2627 191.673 36.9447 187.007 39.4539C183.469 41.3583 179.122 40.7258 176.81 38.1691C175.813 42.1047 171.534 47.3229 168.229 48.2794L168.209 48.2848C164.676 49.2915 162.813 47.9753 160.847 45.1059C160.361 45.7399 159.897 46.3686 159.446 46.9816C157.659 49.4082 155.972 51.7003 153.613 53.1104C152.423 53.7899 151.107 54.2202 149.745 54.3752C148.383 54.5301 147.004 54.4065 145.691 54.0118C144.281 53.6286 142.964 52.9623 141.819 52.0537C140.675 51.1451 139.728 50.0131 139.035 48.7266C136.702 44.2482 137.933 38.3392 141.519 35.0852C140.689 35.0128 139.881 34.7719 139.147 34.3772C138.168 33.8612 137.315 33.1369 136.646 32.2554C135.978 31.3739 135.511 30.3565 135.278 29.275C134.477 25.2023 136.849 21.3115 139.557 19.2636C141.94 17.4591 144.825 16.5604 147.615 15.692C148.044 15.5575 148.473 15.422 148.902 15.2875C147.36 12.047 148.107 7.61023 150.766 4.68029C153.105 2.09978 156.76 0.552453 161.055 0.320218C163.959 0.164675 166.422 0.644267 168.379 1.75035C170.363 2.87274 171.849 4.70443 172.538 6.87734C175.4 2.41303 179.901 -0.246327 184.318 0.0183128C188.963 0.293754 193.441 4.59712 195.09 8.70119C197.279 5.19931 199.908 3.23557 202.921 2.86832C205.887 2.50322 208.296 3.23611 209.892 4.9849C211.904 7.18249 212.558 10.8907 211.77 15.4997C213.554 14.6249 215.585 14.3894 217.522 14.8327C218.822 15.1381 220.04 15.7233 221.09 16.5476C222.141 17.3719 223 18.4154 223.606 19.6054C225.728 23.5712 225.463 30.5151 223.035 34.4674C221.82 36.4457 218.614 38.68 214.652 39.8304M194.019 29.1638C194.057 29.1531 194.096 29.1464 194.135 29.1438C194.239 29.1373 194.343 29.161 194.434 29.2119C194.526 29.2629 194.6 29.339 194.649 29.4311C196.053 32.1132 198.458 35.9326 203.089 38.1432C210.554 41.7077 219.893 37.5237 222.114 33.9057C224.328 30.3012 224.585 23.7295 222.654 20.119C222.12 19.0663 221.363 18.1426 220.436 17.4122C219.508 16.6818 218.433 16.1622 217.285 15.8897C216.267 15.6492 215.21 15.627 214.184 15.8246C213.157 16.0223 212.184 16.4352 211.329 17.0363C211.24 17.1017 211.134 17.1386 211.024 17.1421C210.914 17.1456 210.806 17.1154 210.714 17.0556C210.621 16.9958 210.549 16.9093 210.508 16.8076C210.466 16.7059 210.456 16.5939 210.48 16.4865C211.527 11.6641 211.037 7.83652 209.1 5.71185C207.73 4.21042 205.697 3.61471 203.058 3.9393C200.125 4.29899 197.56 6.42367 195.433 10.2539C195.381 10.348 195.302 10.4244 195.206 10.4733C195.111 10.5222 195.002 10.5415 194.896 10.5286C194.789 10.5158 194.689 10.4713 194.607 10.401C194.526 10.3307 194.467 10.2378 194.439 10.134C193.467 6.55437 189.121 1.38472 184.256 1.09523C179.882 0.837075 175.379 3.77458 172.788 8.58292C172.735 8.68339 172.65 8.76427 172.548 8.81398C172.445 8.86369 172.33 8.87968 172.217 8.85966C172.105 8.83964 172.002 8.78464 171.923 8.70253C171.844 8.62042 171.793 8.51541 171.777 8.40253C171.595 7.2162 171.147 6.08645 170.466 5.09759C169.786 4.10873 168.891 3.28631 167.848 2.69171C166.073 1.68986 163.808 1.2551 161.116 1.39984C157.105 1.61587 153.712 3.03953 151.564 5.40778C149.046 8.18217 148.435 12.4472 150.143 15.3285C150.184 15.398 150.209 15.4758 150.216 15.5562C150.223 15.6367 150.212 15.7177 150.184 15.7932C150.155 15.8688 150.11 15.9371 150.052 15.9931C149.994 16.049 149.924 16.0912 149.847 16.1165C149.213 16.3261 148.574 16.5253 147.936 16.7241C145.111 17.6044 142.441 18.4361 140.209 20.1266C137.767 21.9721 135.624 25.4529 136.338 29.0682C136.538 29.9918 136.937 30.8605 137.509 31.6132C138.08 32.3658 138.81 32.984 139.646 33.4245C140.227 33.7603 140.877 33.9595 141.547 34.007C142.217 34.0545 142.889 33.9492 143.512 33.6988C143.639 33.6465 143.782 33.6449 143.91 33.6944C144.039 33.7438 144.144 33.8405 144.204 33.9648C144.263 34.089 144.273 34.2313 144.231 34.3626C144.189 34.4939 144.099 34.6042 143.978 34.671C139.517 37.0079 137.581 43.598 139.991 48.227C140.617 49.3832 141.471 50.4002 142.501 51.2161C143.532 52.032 144.718 52.6298 145.986 52.9732C147.158 53.3276 148.389 53.4404 149.605 53.3046C150.821 53.1689 151.997 52.7875 153.061 52.1836C155.232 50.8842 156.782 48.7811 158.577 46.3421C159.174 45.532 159.791 44.6933 160.459 43.847C160.513 43.7793 160.582 43.7254 160.66 43.6897C160.738 43.6541 160.824 43.6377 160.91 43.642C160.996 43.6463 161.08 43.6711 161.155 43.7143C161.229 43.7576 161.292 43.8181 161.339 43.8907C163.307 46.9459 164.724 48.1573 167.913 47.2462L167.93 47.2424C171.234 46.2854 175.795 40.3294 175.942 36.7735C175.947 36.6562 175.99 36.5435 176.064 36.4528C176.139 36.3621 176.241 36.2983 176.355 36.2712C176.469 36.2438 176.589 36.2541 176.697 36.3006C176.805 36.3472 176.895 36.4274 176.954 36.5294C178.795 39.7904 183.38 40.183 186.496 38.5039C191.318 35.9115 192.302 33.2198 193.664 29.4954C193.693 29.4158 193.741 29.3442 193.802 29.2863C193.864 29.2284 193.939 29.1859 194.02 29.1622" fill="black"/>
<path d="M162.61 64.1557C162.476 63.781 162.458 63.375 162.558 62.99C162.658 62.6051 162.871 62.2589 163.17 61.9963C163.468 61.7336 163.839 61.5666 164.233 61.5167C164.628 61.4668 165.028 61.5364 165.383 61.7165C165.737 61.8965 166.03 62.1788 166.222 62.5268C166.415 62.8748 166.498 63.2725 166.463 63.6686C166.427 64.0646 166.273 64.4408 166.021 64.7485C165.769 65.0562 165.43 65.2813 165.049 65.3946C164.561 65.5536 164.031 65.5123 163.573 65.28C163.116 65.0477 162.769 64.6433 162.61 64.1557Z" fill="black"/>
<path d="M190.105 60.7786C189.971 60.4039 189.953 59.9979 190.053 59.6129C190.153 59.228 190.366 58.8818 190.665 58.6192C190.963 58.3565 191.334 58.1895 191.728 58.1396C192.123 58.0897 192.523 58.1593 192.878 58.3394C193.232 58.5195 193.525 58.8017 193.717 59.1497C193.91 59.4977 193.993 59.8955 193.957 60.2915C193.922 60.6876 193.768 61.0637 193.516 61.3714C193.264 61.6791 192.925 61.9042 192.544 62.0175C192.056 62.1765 191.525 62.1353 191.068 61.903C190.611 61.6706 190.264 61.2662 190.105 60.7786Z" fill="black"/>
<path d="M188.723 93.8247C187.56 94.1651 186.345 94.2901 185.137 94.1936C185.064 94.1908 184.992 94.1733 184.926 94.1421C184.86 94.1109 184.801 94.0667 184.753 94.012C184.705 93.9574 184.668 93.8935 184.645 93.8242C184.622 93.755 184.613 93.6817 184.619 93.609C184.625 93.5362 184.646 93.4655 184.68 93.401C184.714 93.3365 184.761 93.2795 184.818 93.2337C184.875 93.1878 184.94 93.1539 185.01 93.1341C185.081 93.1143 185.154 93.1089 185.227 93.1183C186.929 93.2399 188.633 92.8883 190.148 92.1023C191.664 91.3164 192.932 90.1267 193.814 88.6648C193.848 88.6009 193.895 88.5447 193.952 88.4995C194.009 88.4542 194.074 88.4209 194.144 88.4014C194.214 88.3819 194.287 88.3767 194.359 88.3861C194.431 88.3955 194.5 88.4193 194.563 88.4561C194.625 88.4929 194.68 88.5419 194.723 88.6001C194.766 88.6584 194.797 88.7248 194.814 88.7954C194.831 88.8659 194.834 88.9391 194.822 89.0107C194.81 89.0823 194.783 89.1507 194.744 89.2119C193.394 91.4561 191.243 93.1046 188.725 93.8247" fill="black"/>
<path d="M182.156 84.428C180.474 84.875 178.713 84.935 177.005 84.6035C176.128 84.5046 175.291 84.1809 174.575 83.6637C174.09 83.2297 173.712 82.6892 173.471 82.0846C173.23 81.48 173.132 80.8278 173.186 80.1791C173.259 79.1596 173.461 78.1534 173.787 77.1844L173.915 76.7415C175.412 71.4583 175.682 65.9025 174.702 60.4991C174.68 60.3598 174.713 60.2172 174.795 60.1021C174.876 59.9869 175 59.9082 175.139 59.8829C175.277 59.8575 175.421 59.8875 175.538 59.9665C175.655 60.0454 175.736 60.167 175.765 60.3053C176.775 65.8718 176.497 71.5956 174.954 77.0386L174.825 77.4879C174.526 78.369 174.338 79.2842 174.266 80.2121C174.223 80.6938 174.29 81.1789 174.461 81.6311C174.633 82.0833 174.904 82.4908 175.256 82.8228C175.829 83.218 176.492 83.4639 177.184 83.5385C178.849 83.8691 180.571 83.7813 182.194 83.283C182.972 83.0362 183.693 82.6338 184.311 82.1003C184.93 81.5667 185.433 80.9132 185.792 80.1791C185.854 80.0555 185.961 79.9604 186.091 79.9133C186.221 79.8663 186.364 79.871 186.491 79.9264C186.618 79.9818 186.718 80.0837 186.772 80.2111C186.826 80.3385 186.829 80.4817 186.78 80.6112C186.366 81.4852 185.776 82.2642 185.047 82.8995C184.318 83.5348 183.465 84.0127 182.543 84.3032C182.415 84.347 182.284 84.3875 182.154 84.4258" fill="black"/>
<path d="M214.386 32.2952C214.264 32.3303 214.133 32.3211 214.017 32.2693C213.901 32.2175 213.807 32.1264 213.751 32.0121C213.696 31.8978 213.682 31.7675 213.713 31.6443C213.744 31.521 213.818 31.4126 213.921 31.3382C215.339 30.2753 216.405 28.8102 216.979 27.1334C217.554 25.4566 217.61 23.6457 217.141 21.9365C217.1 21.7991 217.116 21.6513 217.185 21.5255C217.253 21.3997 217.369 21.3063 217.506 21.2657C217.643 21.226 217.791 21.2423 217.916 21.3109C218.041 21.3795 218.134 21.4949 218.174 21.6319C218.702 23.5555 218.639 25.5937 217.993 27.4809C217.346 29.3681 216.146 31.0169 214.55 32.2126C214.5 32.2488 214.444 32.2764 214.385 32.2942" fill="black"/>
<g opacity="0.129">
<mask id="mask5_250_2883" style="mask-type:luminance" maskUnits="userSpaceOnUse" x="153" y="29" width="43" height="27">
<path d="M195.653 29.9818H153.506V55.1372H195.653V29.9818Z" fill="white"/>
</mask>
<g mask="url(#mask5_250_2883)">
<path d="M193.955 30.0316C193.602 30.664 193.225 31.2824 192.832 31.8911C192.806 32.0175 192.754 32.2151 192.629 32.6607C192.417 33.2768 192.168 33.8794 191.883 34.4651C190.956 36.1427 189.729 37.6364 188.265 38.8727C188.096 38.6587 187.855 38.5139 187.587 38.4655C187.319 38.4171 187.043 38.4686 186.811 38.6102C186.732 38.654 186.649 38.6934 186.567 38.7328C186.528 38.7474 186.483 38.7631 186.423 38.7868C185.449 39.114 184.456 39.3786 183.448 39.5791L183.776 39.5305C182.73 39.659 181.672 39.659 180.625 39.5305C180.553 39.5197 180.409 39.5014 180.277 39.483C180.013 39.4185 179.735 39.4407 179.485 39.5462C179.419 39.532 179.353 39.5219 179.286 39.516C179.273 39.4976 179.253 39.4711 179.218 39.4263C179.207 39.4052 179.195 39.3853 179.185 39.3642C179.186 39.2487 179.177 39.1333 179.16 39.0191C179.116 38.8111 179.028 38.615 178.902 38.4438C178.776 38.2725 178.615 38.1301 178.43 38.0261C178.244 37.9221 178.039 37.8588 177.827 37.8405C177.615 37.8222 177.402 37.8493 177.201 37.92C176.378 38.1636 176.052 39.1082 176.162 39.914C176.059 40.2099 175.941 40.5003 175.809 40.7841C175.219 41.8502 174.521 42.8585 173.829 43.8625C173.697 44.0564 173.312 44.5452 173.253 44.6365C173.222 44.6759 173.19 44.7142 173.158 44.7526C172.348 45.7069 170.656 47.345 168.946 48.0293L168.921 48.0384C168.51 48.1585 168.088 48.2393 167.661 48.2799C167.545 48.2799 167.398 48.2799 167.269 48.2653C167.206 48.2496 167.141 48.2377 167.081 48.2177C166.928 48.1637 166.779 48.1059 166.632 48.0411L166.514 47.9763C166.46 47.9434 166.406 47.9067 166.352 47.8721C165.874 47.9143 165.393 47.8373 164.952 47.648C164.482 47.568 164.041 47.3647 163.674 47.0587C163.472 46.8854 163.29 46.69 163.131 46.476C163.109 46.4468 163.086 46.4155 163.063 46.3852C163.032 46.3622 163.003 46.3375 162.976 46.3113C162.898 46.2362 162.82 46.1611 162.744 46.086C162.227 45.582 161.774 45.0173 161.393 44.4042L161.355 44.4096C161.09 44.4688 160.845 44.5939 160.642 44.7733C160.439 44.9527 160.284 45.1806 160.193 45.4358C160.136 45.6677 160.061 45.8951 159.97 46.1157C159.944 46.1789 159.916 46.2394 159.886 46.3015C159.877 46.3199 159.857 46.3555 159.823 46.4306L159.828 46.4241L159.802 46.4781C159.452 46.9475 159.197 47.4892 158.825 47.945C158.682 48.1243 158.527 48.2971 158.376 48.4694C158.335 48.5153 158.286 48.5693 158.238 48.626C158.218 48.6471 158.198 48.6698 158.174 48.6957C157.392 49.558 156.535 50.3493 155.613 51.0602C155 51.6294 154.091 51.967 153.702 52.7301C152.851 54.3169 154.954 55.929 156.294 54.723C158.273 53.3412 159.989 51.6181 161.364 49.6344C161.585 49.3049 161.792 48.9663 161.98 48.6169C163.072 49.8157 164.402 50.7724 165.886 51.4253C168.131 52.1884 170.588 51.3346 172.421 49.9638C173.678 49.0457 174.785 47.9381 175.703 46.6807C176.589 45.5227 177.358 44.2798 177.999 42.9703C178.669 43.6226 179.459 44.1404 180.325 44.4955C181.534 44.9529 182.858 45.0152 184.105 44.6732C184.051 44.6916 183.994 44.7126 183.95 44.7272C184.073 44.7024 184.196 44.6732 184.319 44.6429C185.864 44.1737 187.314 43.4349 188.602 42.4605C190.542 41.1156 192.205 39.4105 193.501 37.4377C194.301 36.1843 194.886 34.8054 195.229 33.3585C195.283 32.9961 195.25 33.3164 195.199 33.5059C195.357 32.9659 195.469 32.4117 195.573 31.8587C195.68 31.5412 195.679 31.1972 195.57 30.8806C195.467 30.5555 195.239 30.2844 194.937 30.1266C194.635 29.9688 194.282 29.9372 193.956 30.0386" fill="black"/>
</g>
</g>
<g opacity="0.129">
<mask id="mask6_250_2883" style="mask-type:luminance" maskUnits="userSpaceOnUse" x="207" y="37" width="14" height="12">
<path d="M220.685 37.2803H207.658V48.1683H220.685V37.2803Z" fill="white"/>
</mask>
<g mask="url(#mask6_250_2883)">
<path d="M220.367 37.7058C219.649 36.8768 218.681 37.4449 217.895 37.844C216.729 38.4187 215.491 38.8286 214.313 39.3741C213.46 39.8134 212.583 40.2053 211.687 40.5482L211.712 40.539C211.431 40.639 211.213 40.721 211.712 40.5444C211.238 40.7356 210.712 40.8253 210.254 41.0467C210.089 40.8384 209.868 40.6824 209.616 40.5974C209.34 40.5089 209.045 40.5032 208.765 40.5809C208.486 40.6585 208.236 40.8162 208.045 41.0344C207.855 41.2526 207.732 41.5218 207.693 41.8089C207.653 42.0959 207.699 42.3882 207.824 42.6497C208.305 43.4943 208.729 44.3705 209.093 45.2723C209.425 46.6457 210.051 48.8061 211.891 47.9846C212.233 47.7923 212.503 47.4939 212.66 47.1345C212.636 47.2571 213.34 46.2617 213.536 46.0684C214.303 45.1168 215.826 43.5813 217.324 42.055C218.11 41.293 218.923 40.559 219.773 39.8699C219.84 39.8213 219.91 39.7748 219.98 39.7273C220.038 39.6879 220.127 39.6274 220.217 39.5615C220.35 39.4503 220.46 39.3137 220.54 39.1596C220.62 39.0056 220.668 38.8372 220.682 38.6643C220.697 38.4913 220.676 38.3173 220.623 38.1523C220.569 37.9873 220.483 37.8346 220.37 37.7031" fill="black"/>
</g>
</g>
<g opacity="0.129">
<mask id="mask7_250_2883" style="mask-type:luminance" maskUnits="userSpaceOnUse" x="178" y="96" width="37" height="24">
<path d="M214.246 96.2433H178.224V119.037H214.246V96.2433Z" fill="white"/>
</mask>
<g mask="url(#mask7_250_2883)">
<path d="M213.757 116.345C213.287 114.961 212.812 113.576 212.416 112.167C211.541 109.212 210.767 106.233 210.094 103.23C209.26 101.033 208.466 98.8191 207.832 96.5535C207.823 96.5188 207.815 96.4836 207.809 96.4481C207.791 96.3201 207.814 96.2597 207.803 96.2494C207.663 96.1057 205.136 98.5453 205.136 98.5453C203.707 99.8819 202.206 101.141 200.642 102.316C198.336 103.988 195.738 105.213 192.981 105.929C189.444 106.946 185.757 107.346 182.084 107.111C180.485 107.057 179.155 106.921 178.223 106.8C178.412 107.202 178.653 107.578 178.941 107.916C180.17 109.361 181.918 109.553 183.445 110.058C185.196 110.637 186.946 111.213 188.695 111.786C192.239 112.949 195.786 114.109 199.343 115.231C201 115.755 202.662 116.265 204.33 116.76C205.935 117.262 207.593 117.577 209.27 117.699L208.807 117.679C208.951 117.703 209.095 117.724 209.241 117.741C209.437 117.754 209.631 117.777 209.824 117.81C210.275 118.005 210.727 118.195 211.187 118.372C211.613 118.526 212.049 118.651 212.493 118.746C212.657 118.903 212.868 119.003 213.094 119.03C213.32 119.057 213.549 119.011 213.746 118.898C214.737 118.301 213.986 117.165 213.755 116.344" fill="black"/>
</g>
</g>
<g opacity="0.129">
<mask id="mask8_250_2883" style="mask-type:luminance" maskUnits="userSpaceOnUse" x="193" y="151" width="7" height="7">
<path d="M199.621 151.501H193.651V157.124H199.621V151.501Z" fill="white"/>
</mask>
<g mask="url(#mask8_250_2883)">
<path d="M197 152.719C196.569 152.253 196.018 151.916 195.407 151.746C193.751 151.463 192.961 153.799 194.411 154.629C195.112 155.081 195.774 155.589 196.391 156.149C196.776 156.555 197.128 157.089 197.747 157.1C197.977 157.126 198.211 157.1 198.429 157.023C198.647 156.946 198.845 156.82 199.008 156.655C199.171 156.491 199.294 156.291 199.368 156.071C199.441 155.852 199.464 155.618 199.435 155.389C199.525 154.039 199.336 153.852 199.582 153.12C199.963 151.23 197.289 150.865 196.999 152.717" fill="black"/>
</g>
</g>
<g opacity="0.129">
<mask id="mask9_250_2883" style="mask-type:luminance" maskUnits="userSpaceOnUse" x="200" y="145" width="11" height="10">
<path d="M210.433 145.184H200.302V154.648H210.433V145.184Z" fill="white"/>
</mask>
<g mask="url(#mask9_250_2883)">
<path d="M209.757 152.009C209.37 151.372 208.572 151.032 208.073 150.48C207.018 149.551 206.056 148.523 205.2 147.409C204.911 147.023 204.61 146.644 204.356 146.235C204.265 146.004 204.126 145.796 203.948 145.625C203.77 145.453 203.556 145.322 203.323 145.241C203.062 145.174 202.787 145.186 202.533 145.274C202.279 145.362 202.056 145.523 201.892 145.736C201.728 145.95 201.63 146.207 201.611 146.475C201.591 146.743 201.651 147.012 201.782 147.247C201.928 147.475 202.084 147.699 202.238 147.921C202.12 147.862 201.991 147.829 201.86 147.823C200.39 147.57 199.687 149.648 200.977 150.382C202.52 151.236 204.016 152.164 205.511 153.101C206.554 153.739 207.669 154.251 208.833 154.626C210.336 154.883 211.057 152.771 209.756 152.009" fill="black"/>
</g>
</g>
<g opacity="0.129">
<mask id="mask10_250_2883" style="mask-type:luminance" maskUnits="userSpaceOnUse" x="180" y="144" width="12" height="9">
<path d="M191.199 144.824H180.081V152.874H191.199V144.824Z" fill="white"/>
</mask>
<g mask="url(#mask10_250_2883)">
<path d="M191.007 148.075C190.648 147.414 190.336 146.732 189.927 146.097C189.732 145.765 189.624 145.347 189.275 145.139C189.1 145.002 188.895 144.908 188.676 144.866C188.458 144.824 188.232 144.835 188.018 144.897C187.805 144.959 187.609 145.071 187.447 145.224C187.285 145.377 187.162 145.566 187.088 145.776C187.041 145.781 186.995 145.789 186.949 145.799C186.367 145.951 186.012 146.475 185.611 146.883C185.271 147.166 185.03 147.551 184.925 147.981L184.913 148.004C184.811 148.168 184.74 148.349 184.701 148.538C184.113 148.762 183.533 149.014 182.961 149.287C182.097 149.712 181.041 149.952 180.382 150.682C180.194 150.932 180.098 151.238 180.109 151.55C180.121 151.862 180.24 152.161 180.446 152.395C180.652 152.63 180.932 152.786 181.24 152.838C181.548 152.89 181.864 152.835 182.136 152.68C183.353 152.097 184.6 151.576 185.871 151.122C186.862 150.833 187.867 150.596 188.883 150.412C189.116 150.35 189.335 150.243 189.527 150.097C189.787 150.155 190.057 150.135 190.306 150.041C190.555 149.948 190.771 149.783 190.928 149.569C191.085 149.354 191.176 149.099 191.19 148.833C191.204 148.568 191.141 148.304 191.007 148.074" fill="black"/>
</g>
</g>
<g opacity="0.129">
<mask id="mask11_250_2883" style="mask-type:luminance" maskUnits="userSpaceOnUse" x="200" y="230" width="9" height="31">
<path d="M208.543 230.832H200.129V260.41H208.543V230.832Z" fill="white"/>
</mask>
<g mask="url(#mask11_250_2883)">
<path d="M208.091 239.729C208.01 238.195 207.704 236.681 207.185 235.236C206.844 234.221 206.397 233.246 205.851 232.326C205.491 231.739 205.126 231.07 204.402 230.902C204.062 230.814 203.704 230.829 203.372 230.943C203.04 231.057 202.748 231.266 202.534 231.545C202.32 231.823 202.193 232.158 202.168 232.508C202.143 232.859 202.221 233.209 202.393 233.515L202.403 233.53C202.22 234.034 201.829 234.527 201.917 235.074C201.941 235.258 202.01 235.434 202.118 235.586C202.226 235.738 202.369 235.861 202.535 235.945C202.701 236.029 202.886 236.071 203.072 236.068C203.258 236.064 203.441 236.016 203.604 235.926C203.908 236.849 204.151 237.792 204.329 238.749C204.557 240.985 204.791 243.226 204.795 245.477C204.761 247.039 204.775 248.609 204.631 250.163C204.372 251.861 203.995 253.539 203.503 255.185C203.467 255.128 203.434 255.067 203.395 255.01C203.076 254.632 202.823 254.121 202.323 253.969C200.769 253.251 199.381 255.345 200.594 256.533C200.693 256.641 200.825 256.793 200.915 256.9C200.942 256.941 200.969 256.983 200.995 257.026C201.001 257.047 201.01 257.068 201.014 257.089C201.023 257.261 201.016 257.434 200.994 257.604L200.997 257.58V257.624C200.976 257.739 200.964 257.855 200.962 257.972C200.922 258.282 200.98 258.596 201.128 258.871C201.251 259.095 201.441 259.274 201.672 259.382C201.795 259.74 202.048 260.039 202.381 260.219C202.715 260.399 203.103 260.448 203.47 260.354C204.094 260.201 204.389 259.584 204.833 259.178C205.645 258.31 206.34 257.34 206.902 256.293C207.907 254.063 208.463 251.657 208.538 249.212C208.581 246.043 208.431 242.876 208.09 239.726" fill="black"/>
</g>
</g>
<g opacity="0.129">
<mask id="mask12_250_2883" style="mask-type:luminance" maskUnits="userSpaceOnUse" x="344" y="166" width="11" height="30">
<path d="M354.334 166.318H344.661V195.416H354.334V166.318Z" fill="white"/>
</mask>
<g mask="url(#mask12_250_2883)">
<path d="M354.295 168.121C354.058 165.877 350.784 165.665 350.194 167.842C349.31 171.256 348.804 174.761 347.893 178.17C347.083 181.365 346.219 184.547 345.571 187.778C345.402 188.885 345.232 189.99 345.152 191.106C345.137 191.187 345.123 191.268 345.107 191.348C345.02 191.798 344.909 192.243 344.776 192.682L344.767 192.711C344.76 192.735 344.755 192.757 344.748 192.779L344.754 192.766C344.601 193.25 344.633 193.773 344.843 194.235C345.052 194.697 345.425 195.066 345.889 195.27C346.354 195.474 346.877 195.5 347.359 195.342C347.842 195.184 348.248 194.853 348.502 194.414C348.496 194.414 348.487 194.422 348.477 194.432C348.876 193.636 349.133 192.777 349.237 191.894C349.86 189.512 350.088 187.049 350.669 184.657C351.665 180.285 352.742 175.93 353.639 171.536C353.78 170.856 353.905 170.17 354.099 169.501C354.285 169.067 354.351 168.592 354.292 168.124" fill="black"/>
</g>
</g>
<g opacity="0.129">
<mask id="mask13_250_2883" style="mask-type:luminance" maskUnits="userSpaceOnUse" x="203" y="174" width="129" height="97">
<path d="M331.731 174.998H203.588V270.473H331.731V174.998Z" fill="white"/>
</mask>
<g mask="url(#mask13_250_2883)">
<path d="M329.658 263.073C328.965 261.368 328.477 259.589 327.903 257.841C327.152 255.647 326.276 253.498 325.517 251.306C324.46 248.362 323.727 245.922 322.959 243.515C318.273 232.629 313.804 221.65 309.429 210.634C304.742 198.828 300.281 186.936 295.946 174.998C295.711 175.12 295.525 175.32 295.421 175.564C295.316 175.807 295.299 176.079 295.372 176.334C297.459 183.074 300.299 189.551 302.675 196.192C305.501 204.809 308.108 213.51 310.189 222.341C310.652 224.162 311.187 225.964 311.726 227.764C311.457 227.725 311.183 227.753 310.928 227.846C310.673 227.938 310.445 228.092 310.264 228.294C310.083 228.497 309.954 228.74 309.89 229.004C309.826 229.267 309.827 229.543 309.895 229.806C311.22 236.903 312.337 241.79 312.525 248.611C312.557 249.674 312.573 250.738 312.584 251.8C312.406 251.87 312.239 251.968 312.09 252.089C311.922 252.199 311.778 252.34 311.664 252.505C311.931 251.431 312.175 250.353 312.397 249.269C312.22 249.253 312.042 249.275 311.874 249.335C311.707 249.395 311.555 249.491 311.428 249.616C311.082 249.931 311.082 250.409 310.977 250.831C310.58 252.239 310.658 252.185 310.029 253.154C310.013 253.176 309.997 253.196 309.98 253.219C309.938 253.273 309.886 253.335 309.831 253.398C307.942 255.437 305.869 257.298 303.64 258.957C300.049 261.517 297.924 262.338 293.98 263.622C292.782 264.009 291.577 264.378 290.361 264.702C287.796 264.734 285.213 264.924 282.65 264.851C278.539 264.743 274.449 264.277 270.347 264.013C264.378 263.804 257.713 263.698 253.168 262.816C249.246 261.84 245.198 261.847 241.2 261.431C237.613 261.102 236.366 260.875 233.174 260.479C230.9 260.232 227.56 259.929 226.737 259.757C223.391 259.198 216.755 257.975 215.539 257.891C213.421 257.55 211.283 257.354 209.138 257.304C208.5 257.355 207.812 257.142 207.217 257.412C206.971 257.504 206.755 257.662 206.592 257.867C206.429 258.073 206.325 258.319 206.291 258.579C205.88 258.555 205.468 258.53 205.055 258.505C204.857 258.496 204.66 258.54 204.484 258.633C203.002 259.199 203.472 261.486 205.055 261.469C208.21 261.592 211.356 261.877 214.482 262.325C216.259 262.599 218.039 262.861 219.829 263.049C220.607 263.052 221.457 263.399 222.205 263.109C222.487 263.005 222.724 262.806 222.876 262.546C223.189 262.615 223.503 262.683 223.817 262.75C228.971 263.845 233.116 263.98 237.31 264.641C241.405 265.158 245.52 265.483 249.629 265.834C250.555 265.999 254.455 266.654 257.258 266.848C257.334 267.139 257.505 267.396 257.745 267.578C257.984 267.76 258.278 267.856 258.579 267.85C260.697 268.012 262.802 268.29 264.914 268.499C265.498 269.562 266.47 269.247 267.71 269.508C270.418 269.796 273.143 269.733 275.862 269.815C278.667 269.918 281.469 270.139 284.277 270.09C286.658 270.067 289.025 269.781 291.392 269.545C293.388 269.377 295.447 269.351 297.341 268.649C297.331 268.862 297.363 269.074 297.437 269.273C297.511 269.473 297.625 269.655 297.771 269.809C297.918 269.964 298.094 270.086 298.289 270.17C298.485 270.254 298.695 270.298 298.908 270.298C299.473 270.325 300.194 270.31 300.981 270.269C300.997 270.339 301.025 270.403 301.047 270.47C301.947 270.378 302.848 270.291 303.75 270.21C309.271 269.713 314.784 269.471 320.327 269.446C320.424 269.342 320.513 269.23 320.592 269.112C320.828 269.116 321.063 269.078 321.285 269C321.456 269.195 321.671 269.346 321.913 269.44C324.317 269.431 326.72 269.415 329.121 269.329C329.747 269.307 330.372 269.28 330.997 269.249C331.231 269.096 331.422 268.886 331.551 268.637C331.679 268.389 331.741 268.112 331.731 267.832C331.623 266.889 331.083 266.043 330.684 265.195C330.32 264.498 329.971 263.791 329.658 263.071M304.937 264.735C303.829 266.049 303.723 266.202 302.902 267.089C302.446 267.107 301.99 267.122 301.534 267.13C301.198 267.156 300.86 267.16 300.523 267.141C302.572 265.892 304.461 264.397 306.147 262.69C306.408 262.462 306.668 262.224 306.926 261.975C306.281 262.909 305.613 263.826 304.937 264.735M321.452 250.89C321.379 250.22 321.304 249.55 321.228 248.88C321.339 249.226 321.449 249.574 321.563 249.92C321.703 250.352 321.847 250.784 321.995 251.216C321.834 251.077 321.65 250.967 321.451 250.892M326.623 266.674C327.044 266.548 327.403 266.271 327.632 265.896C327.764 266.159 327.898 266.425 328.045 266.701C327.537 266.687 327.069 266.678 326.623 266.674Z" fill="black"/>
</g>
</g>
<path d="M192.299 172.131C192.255 172.13 192.213 172.113 192.182 172.082C192.166 172.067 192.154 172.049 192.145 172.029C192.137 172.009 192.132 171.987 192.132 171.966C192.132 171.944 192.137 171.922 192.145 171.902C192.154 171.882 192.166 171.864 192.182 171.849L199.134 164.99C199.15 164.975 199.168 164.963 199.188 164.955C199.208 164.946 199.229 164.942 199.251 164.942C199.273 164.943 199.294 164.947 199.314 164.955C199.334 164.964 199.352 164.976 199.367 164.991C199.383 165.007 199.395 165.025 199.403 165.045C199.411 165.065 199.415 165.086 199.415 165.108C199.415 165.13 199.41 165.151 199.402 165.171C199.394 165.191 199.381 165.209 199.366 165.224L192.413 172.083C192.382 172.114 192.341 172.131 192.297 172.131" fill="black"/>
<path d="M192.808 167.233C192.775 167.233 192.743 167.224 192.716 167.206C192.688 167.188 192.667 167.162 192.654 167.132C192.642 167.101 192.639 167.068 192.645 167.036C192.652 167.004 192.667 166.974 192.691 166.951L198.33 161.312C198.346 161.296 198.364 161.284 198.384 161.276C198.404 161.267 198.425 161.263 198.447 161.263C198.469 161.263 198.49 161.267 198.51 161.275C198.531 161.284 198.549 161.296 198.564 161.311C198.58 161.326 198.592 161.345 198.6 161.365C198.609 161.385 198.613 161.406 198.613 161.428C198.613 161.45 198.609 161.471 198.6 161.491C198.592 161.511 198.58 161.53 198.565 161.545L192.925 167.186C192.894 167.216 192.852 167.233 192.808 167.233Z" fill="black"/>
<path d="M193.859 162.237C193.827 162.237 193.794 162.228 193.767 162.21C193.74 162.192 193.718 162.166 193.706 162.136C193.693 162.105 193.69 162.072 193.696 162.04C193.703 162.008 193.719 161.978 193.742 161.955L198.27 157.429C198.285 157.414 198.303 157.401 198.323 157.393C198.343 157.384 198.364 157.38 198.386 157.38C198.408 157.38 198.43 157.384 198.45 157.393C198.47 157.401 198.488 157.414 198.503 157.429C198.533 157.46 198.55 157.502 198.55 157.546C198.55 157.589 198.533 157.631 198.503 157.663L193.977 162.19C193.946 162.22 193.904 162.237 193.86 162.238" fill="black"/>
<path d="M195.05 157.45C195.017 157.45 194.985 157.44 194.957 157.422C194.93 157.404 194.909 157.378 194.896 157.348C194.884 157.318 194.88 157.284 194.887 157.252C194.893 157.22 194.909 157.191 194.933 157.168L197.922 154.18C197.937 154.164 197.955 154.152 197.975 154.143C197.995 154.135 198.017 154.13 198.039 154.13C198.06 154.13 198.082 154.135 198.102 154.143C198.122 154.152 198.14 154.164 198.155 154.18C198.186 154.211 198.203 154.253 198.203 154.297C198.203 154.34 198.186 154.382 198.155 154.413L195.167 157.403C195.135 157.433 195.093 157.45 195.05 157.45Z" fill="black"/>
<path d="M191.196 177.391C191.163 177.391 191.131 177.382 191.104 177.363C191.077 177.345 191.055 177.319 191.043 177.289C191.03 177.259 191.027 177.226 191.034 177.194C191.04 177.162 191.056 177.132 191.079 177.109L198.935 169.255C198.95 169.24 198.968 169.227 198.988 169.219C199.008 169.21 199.03 169.206 199.052 169.206C199.073 169.206 199.095 169.21 199.115 169.219C199.135 169.227 199.153 169.24 199.168 169.255C199.199 169.286 199.216 169.328 199.216 169.372C199.216 169.416 199.199 169.458 199.168 169.489L191.313 177.343C191.281 177.373 191.239 177.39 191.196 177.39" fill="black"/>
<path d="M190.636 183.089C190.603 183.09 190.571 183.08 190.543 183.062C190.516 183.044 190.495 183.018 190.482 182.988C190.47 182.957 190.466 182.924 190.473 182.892C190.479 182.86 190.495 182.83 190.518 182.807L199.308 174.016C199.34 173.986 199.382 173.969 199.425 173.969C199.469 173.969 199.511 173.986 199.543 174.016C199.574 174.048 199.591 174.09 199.591 174.134C199.591 174.178 199.574 174.22 199.543 174.251L190.754 183.042C190.721 183.072 190.68 183.088 190.636 183.089Z" fill="black"/>
<path d="M189.328 189.44C189.295 189.441 189.263 189.431 189.236 189.413C189.208 189.395 189.187 189.369 189.174 189.339C189.162 189.308 189.159 189.275 189.165 189.243C189.172 189.211 189.188 189.181 189.211 189.158L200.236 178.133C200.267 178.102 200.309 178.085 200.353 178.085C200.397 178.085 200.439 178.102 200.47 178.133C200.501 178.165 200.518 178.207 200.518 178.25C200.518 178.294 200.501 178.336 200.47 178.368L189.445 189.393C189.414 189.423 189.372 189.44 189.328 189.44Z" fill="black"/>
<path d="M188.348 195.744C188.315 195.744 188.283 195.735 188.256 195.717C188.228 195.699 188.207 195.673 188.194 195.643C188.182 195.612 188.178 195.579 188.185 195.547C188.191 195.515 188.207 195.485 188.231 195.462L201.031 182.662C201.062 182.631 201.104 182.614 201.148 182.614C201.192 182.614 201.234 182.631 201.265 182.662C201.295 182.694 201.312 182.736 201.312 182.78C201.312 182.823 201.295 182.865 201.265 182.897L188.465 195.697C188.434 195.727 188.392 195.744 188.348 195.744Z" fill="black"/>
<path d="M187.134 201.738C187.101 201.739 187.069 201.729 187.041 201.711C187.014 201.693 186.993 201.667 186.98 201.637C186.967 201.607 186.964 201.573 186.971 201.541C186.977 201.509 186.993 201.48 187.016 201.457L201.35 187.123C201.381 187.092 201.423 187.075 201.467 187.075C201.511 187.075 201.553 187.092 201.584 187.123C201.614 187.155 201.631 187.197 201.631 187.241C201.631 187.284 201.614 187.326 201.584 187.358L187.251 201.691C187.219 201.721 187.177 201.738 187.134 201.738Z" fill="black"/>
<path d="M186.522 207.494C186.478 207.494 186.436 207.477 186.405 207.446C186.374 207.415 186.357 207.373 186.357 207.329C186.357 207.285 186.374 207.243 186.405 207.212L201.967 191.65C201.997 191.619 202.039 191.602 202.083 191.602C202.127 191.602 202.169 191.619 202.2 191.65C202.231 191.681 202.248 191.723 202.248 191.767C202.248 191.81 202.231 191.852 202.2 191.883L186.64 207.446C186.608 207.477 186.566 207.494 186.522 207.494" fill="black"/>
<path d="M187.64 211.825C187.607 211.825 187.575 211.816 187.547 211.798C187.52 211.78 187.499 211.754 187.486 211.724C187.474 211.693 187.47 211.66 187.477 211.628C187.483 211.596 187.499 211.566 187.522 211.543L201.74 197.327C201.771 197.296 201.813 197.279 201.857 197.279C201.901 197.279 201.943 197.296 201.975 197.327C202.005 197.359 202.022 197.401 202.022 197.444C202.022 197.488 202.005 197.53 201.975 197.561L187.757 211.778C187.726 211.808 187.683 211.825 187.64 211.825Z" fill="black"/>
<path d="M189.328 215.375C189.296 215.375 189.263 215.365 189.236 215.347C189.209 215.329 189.187 215.303 189.175 215.273C189.162 215.243 189.159 215.21 189.165 215.177C189.172 215.145 189.188 215.116 189.211 215.093L201.732 202.57C201.748 202.554 201.766 202.541 201.786 202.533C201.807 202.524 201.828 202.519 201.851 202.519C201.873 202.518 201.895 202.522 201.915 202.531C201.936 202.539 201.954 202.551 201.97 202.567C201.986 202.583 201.998 202.601 202.006 202.622C202.015 202.642 202.019 202.664 202.019 202.687C202.018 202.709 202.014 202.731 202.005 202.751C201.996 202.771 201.983 202.79 201.967 202.805L189.446 215.327C189.414 215.357 189.372 215.374 189.328 215.375Z" fill="black"/>
<path d="M190.408 219.02C190.375 219.02 190.343 219.011 190.315 218.993C190.288 218.975 190.267 218.949 190.254 218.918C190.242 218.888 190.238 218.855 190.245 218.823C190.251 218.791 190.267 218.761 190.291 218.738L202.277 206.752C202.308 206.722 202.35 206.705 202.394 206.705C202.438 206.705 202.48 206.722 202.511 206.752C202.541 206.784 202.557 206.826 202.557 206.869C202.557 206.913 202.541 206.955 202.511 206.986L190.525 218.972C190.494 219.003 190.451 219.02 190.408 219.02Z" fill="black"/>
<path d="M191.975 222.147C191.942 222.147 191.91 222.137 191.883 222.119C191.855 222.101 191.834 222.075 191.821 222.045C191.809 222.015 191.805 221.982 191.812 221.949C191.818 221.917 191.834 221.888 191.858 221.865L201.245 212.478C201.277 212.447 201.319 212.429 201.363 212.429C201.406 212.429 201.449 212.447 201.48 212.478C201.51 212.509 201.527 212.551 201.527 212.595C201.527 212.639 201.51 212.681 201.48 212.712L192.093 222.099C192.062 222.129 192.02 222.146 191.976 222.146" fill="black"/>
<path d="M193.718 225.008C193.686 225.008 193.653 224.999 193.626 224.981C193.599 224.963 193.577 224.937 193.565 224.906C193.552 224.876 193.549 224.843 193.555 224.811C193.562 224.779 193.578 224.749 193.601 224.726L198.563 219.764C198.595 219.734 198.636 219.718 198.68 219.718C198.723 219.719 198.764 219.736 198.795 219.767C198.825 219.797 198.843 219.839 198.843 219.882C198.844 219.925 198.827 219.967 198.798 219.998L193.835 224.96C193.804 224.991 193.762 225.008 193.718 225.008Z" fill="black"/>
<path d="M194.942 228.419C194.9 228.419 194.86 228.403 194.83 228.375C194.814 228.361 194.801 228.343 194.792 228.323C194.783 228.304 194.778 228.282 194.777 228.261C194.776 228.239 194.779 228.217 194.787 228.197C194.794 228.177 194.806 228.158 194.821 228.142L197.117 225.661C197.146 225.629 197.187 225.61 197.231 225.609C197.275 225.607 197.317 225.623 197.349 225.653C197.381 225.682 197.4 225.724 197.402 225.767C197.403 225.811 197.388 225.854 197.358 225.886L195.063 228.366C195.048 228.383 195.029 228.396 195.008 228.406C194.987 228.415 194.964 228.42 194.942 228.42" fill="black"/>
<path d="M191.711 145.68C191.688 145.68 191.665 145.675 191.644 145.665C191.623 145.656 191.604 145.643 191.588 145.626C191.573 145.609 191.562 145.591 191.555 145.57C191.548 145.549 191.545 145.528 191.547 145.506C191.548 145.484 191.554 145.463 191.563 145.444C191.573 145.424 191.586 145.407 191.602 145.392L195.945 141.538C195.961 141.524 195.98 141.513 196.001 141.506C196.021 141.499 196.043 141.496 196.065 141.497C196.086 141.499 196.108 141.504 196.127 141.514C196.147 141.523 196.164 141.537 196.178 141.553C196.193 141.569 196.204 141.588 196.211 141.608C196.218 141.629 196.221 141.65 196.22 141.672C196.219 141.694 196.213 141.715 196.203 141.734C196.194 141.753 196.18 141.771 196.164 141.785L191.821 145.64C191.791 145.666 191.753 145.68 191.713 145.681" fill="black"/>
<path d="M193.017 148.67C192.974 148.67 192.932 148.653 192.9 148.623C192.869 148.591 192.852 148.549 192.852 148.505C192.852 148.462 192.869 148.419 192.9 148.388L199.281 142.009C199.312 141.978 199.354 141.961 199.398 141.961C199.442 141.961 199.484 141.978 199.515 142.009C199.545 142.041 199.561 142.083 199.561 142.127C199.561 142.17 199.545 142.212 199.515 142.244L193.134 148.624C193.103 148.655 193.061 148.672 193.017 148.672" fill="black"/>
<path d="M195.12 150.538C195.076 150.537 195.034 150.52 195.003 150.489C194.972 150.458 194.955 150.416 194.955 150.373C194.955 150.329 194.972 150.287 195.003 150.256L199.911 145.349C199.926 145.333 199.944 145.321 199.965 145.313C199.985 145.305 200.006 145.301 200.028 145.301C200.049 145.301 200.071 145.305 200.091 145.314C200.111 145.322 200.129 145.334 200.144 145.35C200.159 145.365 200.171 145.383 200.18 145.403C200.188 145.424 200.192 145.445 200.192 145.467C200.192 145.488 200.187 145.51 200.179 145.53C200.171 145.55 200.158 145.568 200.143 145.583L195.235 150.49C195.22 150.505 195.201 150.518 195.182 150.526C195.162 150.534 195.14 150.538 195.119 150.538" fill="black"/>
</g>
</g>
</svg>
