<svg width="111" height="44" viewBox="0 0 111 44" fill="none" xmlns="http://www.w3.org/2000/svg">
<g clip-path="url(#clip0_2_141)">
<path d="M62.1766 15.1016L64.7608 23.2486L67.3027 15.0216L69.8615 6.82124H76.5579V40.7584H70.3444L70.319 34.296L70.2936 27.8633L69.5169 31.2561C69.1046 33.1275 68.4324 35.9806 68.0455 37.6355L67.3733 40.622L64.7354 40.7021C62.4082 40.7584 62.0975 40.7317 61.9676 40.2958C61.9168 40.0259 61.2954 37.2559 60.5979 34.1329L59.358 28.4327L59.2168 34.5392L59.0869 40.622H52.8734L52.7972 23.7172L52.7463 6.81235L56.1581 6.89539L59.5698 6.97546L62.1766 15.1016Z" fill="#404040"/>
<path d="M89.8377 16.1604L93.7408 25.3928L93.8199 16.107L93.8707 6.82125H100.084V40.7584H96.7402C94.3876 40.7584 93.3511 40.6487 93.1731 40.4055C93.0432 40.2424 91.182 35.9569 89.0638 30.9299L85.2002 21.7805L85.1211 31.2561L85.0703 40.7466H78.8568V6.79456L82.3731 6.8776L85.8893 6.95767L89.8377 16.1604Z" fill="#404040"/>
<path d="M5.86884 4.0809C6.52813 4.41078 7.10753 4.89346 7.56341 5.49259C8.10567 6.30818 8.18193 6.76787 8.26101 9.32139L8.36269 12.2516H0.28241V3.56485H2.55878C4.18839 3.56485 5.10064 3.72797 5.86884 4.0809Z" fill="#18BAB7"/>
<path d="M8.55756 22.605V30.7757L9.22692 32.0954C9.93802 33.3998 11.064 34.3994 12.4071 34.9188C14.1016 35.4883 16.8016 34.8625 18.0556 33.6139C20.332 31.3896 20.332 27.0181 18.0556 24.8471C16.8666 23.7053 15.8329 23.3642 13.0397 23.1893L10.351 23.0261V14.4254H13.0679C17.358 14.4254 19.6598 15.158 22.6705 17.492C26.1867 20.2324 28.1779 24.4408 28.1779 29.2186C28.1907 32.5591 27.1197 35.8044 25.1411 38.4201C23.1625 41.0358 20.3945 42.8658 17.2931 43.6085C10.3369 45.3198 3.48797 41.3278 0.799256 34.0261C0.152495 32.2319 0.152494 32.0984 0.0479954 23.302L-0.0282593 14.4254H8.52932L8.55756 22.605Z" fill="#404040"/>
<path d="M110.17 0.99354C110.921 1.78243 110.997 1.99894 110.997 3.60045C110.997 5.20196 110.921 5.41845 110.15 6.23403C109.379 7.04961 109.195 7.12376 107.642 7.12376C106.089 7.12376 105.911 7.04368 105.134 6.23403C104.357 5.42438 104.287 5.22865 104.287 3.62714C104.287 2.14426 104.391 1.78243 104.933 1.15665C105.84 0.124569 106.408 -0.0652381 107.984 0.0178031C109.113 0.0978786 109.509 0.260998 110.181 0.99354" fill="#404040"/>
<path d="M48.0354 9.32139L45.6602 6.82126H30.5305V40.7851H36.6225L36.6988 34.1596L36.7496 27.7269H45.6602L48.0665 25.203L50.4445 22.7029V11.8453L48.0354 9.32139ZM44.2339 17.3289V21.2645H36.7355V13.4112H44.2481L44.2339 17.3289Z" fill="#404040"/>
</g>
<defs>
<clipPath id="clip0_2_141">
<rect width="111" height="44" fill="white"/>
</clipPath>
</defs>
</svg>
